<svg width="48" height="48" fill="none" xmlns="http://www.w3.org/2000/svg"><path d="M18.832 13.402c2.306-3.595 3.671-6.916 4.382-9.265.273-.9 1.425-1.268 2.109-.623 10.31 9.722 13.68 17.146 14.35 25.723.492 8.296-3.584 15.679-14.53 15.679-10.275 0-17.86-7.171-16.83-18.54.618-6.792 3.26-11.969 5.37-15.05.657-.958 2.027-.972 2.784-.09l1.889 2.2c.13.151.368.134.476-.034z" fill="url(#a)"/><path d="M18.832 13.402c2.306-3.595 3.671-6.916 4.382-9.265.273-.9 1.425-1.268 2.109-.623 10.31 9.722 13.68 17.146 14.35 25.723.492 8.296-3.584 15.679-14.53 15.679-10.275 0-17.86-7.171-16.83-18.54.618-6.792 3.26-11.969 5.37-15.05.657-.958 2.027-.972 2.784-.09l1.889 2.2c.13.151.368.134.476-.034z" fill="url(#b)"/><path d="M18.832 13.402c2.306-3.595 3.671-6.916 4.382-9.265.273-.9 1.425-1.268 2.109-.623 10.31 9.722 13.68 17.146 14.35 25.723.492 8.296-3.584 15.679-14.53 15.679-10.275 0-17.86-7.171-16.83-18.54.618-6.792 3.26-11.969 5.37-15.05.657-.958 2.027-.972 2.784-.09l1.889 2.2c.13.151.368.134.476-.034z" fill="url(#c)"/><path d="M18.832 13.402c2.306-3.595 3.671-6.916 4.382-9.265.273-.9 1.425-1.268 2.109-.623 10.31 9.722 13.68 17.146 14.35 25.723.492 8.296-3.584 15.679-14.53 15.679-10.275 0-17.86-7.171-16.83-18.54.618-6.792 3.26-11.969 5.37-15.05.657-.958 2.027-.972 2.784-.09l1.889 2.2c.13.151.368.134.476-.034z" fill="url(#d)"/><path d="M18.832 13.402c2.306-3.595 3.671-6.916 4.382-9.265.273-.9 1.425-1.268 2.109-.623 10.31 9.722 13.68 17.146 14.35 25.723.492 8.296-3.584 15.679-14.53 15.679-10.275 0-17.86-7.171-16.83-18.54.618-6.792 3.26-11.969 5.37-15.05.657-.958 2.027-.972 2.784-.09l1.889 2.2c.13.151.368.134.476-.034z" fill="url(#e)"/><path d="M18.832 13.402c2.306-3.595 3.671-6.916 4.382-9.265.273-.9 1.425-1.268 2.109-.623 10.31 9.722 13.68 17.146 14.35 25.723.492 8.296-3.584 15.679-14.53 15.679-10.275 0-17.86-7.171-16.83-18.54.618-6.792 3.26-11.969 5.37-15.05.657-.958 2.027-.972 2.784-.09l1.889 2.2c.13.151.368.134.476-.034z" fill="url(#f)"/><path d="M18.832 13.402c2.306-3.595 3.671-6.916 4.382-9.265.273-.9 1.425-1.268 2.109-.623 10.31 9.722 13.68 17.146 14.35 25.723.492 8.296-3.584 15.679-14.53 15.679-10.275 0-17.86-7.171-16.83-18.54.618-6.792 3.26-11.969 5.37-15.05.657-.958 2.027-.972 2.784-.09l1.889 2.2c.13.151.368.134.476-.034z" fill="url(#g)"/><path d="M18.832 13.402c2.306-3.595 3.671-6.916 4.382-9.265.273-.9 1.425-1.268 2.109-.623 10.31 9.722 13.68 17.146 14.35 25.723.492 8.296-3.584 15.679-14.53 15.679-10.275 0-17.86-7.171-16.83-18.54.618-6.792 3.26-11.969 5.37-15.05.657-.958 2.027-.972 2.784-.09l1.889 2.2c.13.151.368.134.476-.034z" fill="url(#h)"/><g filter="url(#i)"><path d="M15.267 29.815c1.953-4.65 5.963-9.793 8.67-12.585a2.004 2.004 0 0 1 2.808-.057c5.191 4.784 6.754 9.108 8.08 14.142 1.38 5.238 0 13.677-10.381 13.677-8.94 0-12.039-8.367-9.177-15.177z" fill="url(#j)"/><path d="M15.267 29.815c1.953-4.65 5.963-9.793 8.67-12.585a2.004 2.004 0 0 1 2.808-.057c5.191 4.784 6.754 9.108 8.08 14.142 1.38 5.238 0 13.677-10.381 13.677-8.94 0-12.039-8.367-9.177-15.177z" fill="url(#k)"/><path d="M15.267 29.815c1.953-4.65 5.963-9.793 8.67-12.585a2.004 2.004 0 0 1 2.808-.057c5.191 4.784 6.754 9.108 8.08 14.142 1.38 5.238 0 13.677-10.381 13.677-8.94 0-12.039-8.367-9.177-15.177z" fill="url(#l)"/></g><path d="M15.267 29.815c1.953-4.65 5.963-9.793 8.67-12.585a2.004 2.004 0 0 1 2.808-.057c5.191 4.784 6.754 9.108 8.08 14.142 1.38 5.238 0 13.677-10.381 13.677-8.94 0-12.039-8.367-9.177-15.177z" fill="url(#m)"/><path d="M15.267 29.815c1.953-4.65 5.963-9.793 8.67-12.585a2.004 2.004 0 0 1 2.808-.057c5.191 4.784 6.754 9.108 8.08 14.142 1.38 5.238 0 13.677-10.381 13.677-8.94 0-12.039-8.367-9.177-15.177z" fill="url(#n)"/><g filter="url(#o)"><path d="M17.721 17.308c3.473-5.085 5.505-10.587 6.125-11.943-.905 6.951-3.54 12.042-8.502 18.598-3.97 5.243-4.686 9.731-4.652 10.825-1.24-8.343 2.687-11.124 7.029-17.48z" fill="url(#p)"/></g><g filter="url(#q)"><path d="M14.721 11.811c-1.95 2.421-5.828 9.135-5.73 16.626 1.92-7.683 6.412-10.104 5.73-16.626z" fill="url(#r)"/></g><defs><radialGradient id="f" cx="0" cy="0" r="1" gradientUnits="userSpaceOnUse" gradientTransform="matrix(.562 15.19571 -14.06518 .5202 24.643 2.049)"><stop stop-color="#FF2F3C"/><stop offset="1" stop-color="#FF2F3C" stop-opacity="0"/></radialGradient><radialGradient id="g" cx="0" cy="0" r="1" gradientUnits="userSpaceOnUse" gradientTransform="matrix(3.11693 1.47525 -2.96053 6.25504 20.85 7.2)"><stop stop-color="#FF846C"/><stop offset="1" stop-color="#FF846C" stop-opacity="0"/></radialGradient><radialGradient id="b" cx="0" cy="0" r="1" gradientUnits="userSpaceOnUse" gradientTransform="matrix(-14.37988 -5.82825 10.05712 -24.81366 15.558 23.481)"><stop stop-color="#CE5327"/><stop offset="1" stop-color="#CE5327" stop-opacity="0"/></radialGradient><radialGradient id="d" cx="0" cy="0" r="1" gradientUnits="userSpaceOnUse" gradientTransform="rotate(24.015 -47.03 28.275) scale(4.65698 38.5486)"><stop stop-color="#FFAA7B"/><stop offset="1" stop-color="#FFAA7B" stop-opacity="0"/></radialGradient><radialGradient id="e" cx="0" cy="0" r="1" gradientUnits="userSpaceOnUse" gradientTransform="matrix(1.2645 5.62002 -7.0125 1.5778 13.965 9.375)"><stop stop-color="#FF5E47"/><stop offset="1" stop-color="#FF5E47" stop-opacity="0"/></radialGradient><radialGradient id="a" cx="0" cy="0" r="1" gradientUnits="userSpaceOnUse" gradientTransform="rotate(-179.474 18.069 14.707) scale(25.6482 38.6792)"><stop stop-color="#FF953D"/><stop offset="1" stop-color="#FF5141"/></radialGradient><radialGradient id="n" cx="0" cy="0" r="1" gradientUnits="userSpaceOnUse" gradientTransform="rotate(143.063 12.53 19.86) scale(24.0819 17.4261)"><stop offset=".772" stop-color="#F18A52" stop-opacity="0"/><stop offset="1" stop-color="#F18A52"/></radialGradient><radialGradient id="h" cx="0" cy="0" r="1" gradientUnits="userSpaceOnUse" gradientTransform="matrix(-1.34763 3.14063 -.7197 -.30882 18.687 12.315)"><stop stop-color="#FFA682"/><stop offset="1" stop-color="#FFA682" stop-opacity="0"/></radialGradient><radialGradient id="j" cx="0" cy="0" r="1" gradientUnits="userSpaceOnUse" gradientTransform="matrix(-14.74462 -2.98429 3.71631 -18.36139 31.806 36.564)"><stop stop-color="#FFDA2F"/><stop offset="1" stop-color="#FF8E41"/></radialGradient><radialGradient id="k" cx="0" cy="0" r="1" gradientUnits="userSpaceOnUse" gradientTransform="rotate(69.044 -.068 19.964) scale(21.2138 18.4318)"><stop stop-color="#FD5639"/><stop offset="1" stop-color="#FE5533" stop-opacity="0"/></radialGradient><radialGradient id="l" cx="0" cy="0" r="1" gradientUnits="userSpaceOnUse" gradientTransform="matrix(-14.62376 1.47537 -3.61235 -35.80534 28.858 30.943)"><stop offset=".628" stop-color="#D7812D" stop-opacity="0"/><stop offset="1" stop-color="#D7812D"/></radialGradient><linearGradient id="c" x1="27.504" y1="44.916" x2="27.504" y2="37.269" gradientUnits="userSpaceOnUse"><stop stop-color="#FF7583"/><stop offset="1" stop-color="#FF7583" stop-opacity="0"/></linearGradient><linearGradient id="r" x1="14.312" y1="12.216" x2="8.373" y2="29.218" gradientUnits="userSpaceOnUse"><stop stop-color="#FF815B"/><stop offset="1" stop-color="#FF9C6D"/></linearGradient><linearGradient id="p" x1="22.494" y1="6.382" x2="11.482" y2="34.098" gradientUnits="userSpaceOnUse"><stop stop-color="#FF7558"/><stop offset="1" stop-color="#F38758"/></linearGradient><linearGradient id="m" x1="24.755" y1="15.918" x2="24.755" y2="21.388" gradientUnits="userSpaceOnUse"><stop stop-color="#F95131"/><stop offset="1" stop-color="#F95131" stop-opacity="0"/></linearGradient><filter id="o" x="9.21" y="4.115" width="15.886" height="31.922" filterUnits="userSpaceOnUse" color-interpolation-filters="sRGB"><feFlood flood-opacity="0" result="BackgroundImageFix"/><feBlend in="SourceGraphic" in2="BackgroundImageFix" result="shape"/><feGaussianBlur stdDeviation=".625" result="effect1_foregroundBlur_123_188"/></filter><filter id="q" x="7.489" y="10.311" width="8.802" height="19.626" filterUnits="userSpaceOnUse" color-interpolation-filters="sRGB"><feFlood flood-opacity="0" result="BackgroundImageFix"/><feBlend in="SourceGraphic" in2="BackgroundImageFix" result="shape"/><feGaussianBlur stdDeviation=".75" result="effect1_foregroundBlur_123_188"/></filter><filter id="i" x="14.235" y="16.127" width="22.038" height="29.365" filterUnits="userSpaceOnUse" color-interpolation-filters="sRGB"><feFlood flood-opacity="0" result="BackgroundImageFix"/><feColorMatrix in="SourceAlpha" values="0 0 0 0 0 0 0 0 0 0 0 0 0 0 0 0 0 0 127 0" result="hardAlpha"/><feOffset dx=".5"/><feGaussianBlur stdDeviation=".25"/><feComposite in2="hardAlpha" operator="out"/><feColorMatrix values="0 0 0 0 0.952941 0 0 0 0 0.615686 0 0 0 0 0.364706 0 0 0 1 0"/><feBlend in2="BackgroundImageFix" result="effect1_dropShadow_123_188"/><feBlend in="SourceGraphic" in2="effect1_dropShadow_123_188" result="shape"/></filter></defs></svg>