<svg width="48" height="48" fill="none" xmlns="http://www.w3.org/2000/svg"><g filter="url(#a)"><path d="M18.402 7.737a4.933 4.933 0 1 1 9.865 0v5.678c0 .483-.034.966-.109 1.449a9.004 9.004 0 0 0-.07.528c-.055.555.011 1.28.39 1.77l-.904.87a14.007 14.007 0 0 1 7.622 12.488 14.069 14.069 0 0 1-.648 4.238l-1.495 9.76H20.9v-.004c-7.505-.162-13.526-5.055-13.526-13.995 0-5.253 2.516-9.483 6.322-11.868l-.01-.007c.26-.18.566-.365.893-.561h.003c1.08-.648 2.4-1.44 3.094-2.733.605-1.12.72-2.94.72-3.785h.005V7.737z" fill="url(#b)"/></g><path d="M18.402 7.737a4.933 4.933 0 1 1 9.865 0v5.678c0 .483-.034.966-.109 1.449a9.004 9.004 0 0 0-.07.528c-.055.555.011 1.28.39 1.77l-.904.87a14.007 14.007 0 0 1 7.622 12.488 14.069 14.069 0 0 1-.648 4.238l-1.495 9.76H20.9v-.004c-7.505-.162-13.526-5.055-13.526-13.995 0-5.253 2.516-9.483 6.322-11.868l-.01-.007c.26-.18.566-.365.893-.561h.003c1.08-.648 2.4-1.44 3.094-2.733.605-1.12.72-2.94.72-3.785h.005V7.737z" fill="url(#c)"/><path d="M18.402 7.737a4.933 4.933 0 1 1 9.865 0v5.678c0 .483-.034.966-.109 1.449a9.004 9.004 0 0 0-.07.528c-.055.555.011 1.28.39 1.77l-.904.87a14.007 14.007 0 0 1 7.622 12.488 14.069 14.069 0 0 1-.648 4.238l-1.495 9.76H20.9v-.004c-7.505-.162-13.526-5.055-13.526-13.995 0-5.253 2.516-9.483 6.322-11.868l-.01-.007c.26-.18.566-.365.893-.561h.003c1.08-.648 2.4-1.44 3.094-2.733.605-1.12.72-2.94.72-3.785h.005V7.737z" fill="url(#d)"/><path d="M18.402 7.737a4.933 4.933 0 1 1 9.865 0v5.678c0 .483-.034.966-.109 1.449a9.004 9.004 0 0 0-.07.528c-.055.555.011 1.28.39 1.77l-.904.87a14.007 14.007 0 0 1 7.622 12.488 14.069 14.069 0 0 1-.648 4.238l-1.495 9.76H20.9v-.004c-7.505-.162-13.526-5.055-13.526-13.995 0-5.253 2.516-9.483 6.322-11.868l-.01-.007c.26-.18.566-.365.893-.561h.003c1.08-.648 2.4-1.44 3.094-2.733.605-1.12.72-2.94.72-3.785h.005V7.737z" fill="url(#e)"/><path d="M18.402 7.737a4.933 4.933 0 1 1 9.865 0v5.678c0 .483-.034.966-.109 1.449a9.004 9.004 0 0 0-.07.528c-.055.555.011 1.28.39 1.77l-.904.87a14.007 14.007 0 0 1 7.622 12.488 14.069 14.069 0 0 1-.648 4.238l-1.495 9.76H20.9v-.004c-7.505-.162-13.526-5.055-13.526-13.995 0-5.253 2.516-9.483 6.322-11.868l-.01-.007c.26-.18.566-.365.893-.561h.003c1.08-.648 2.4-1.44 3.094-2.733.605-1.12.72-2.94.72-3.785h.005V7.737z" fill="url(#f)"/><g filter="url(#g)"><path d="M35.519 22.064a3.828 3.828 0 0 0-3.828-3.828h-4.24a3.828 3.828 0 0 0-2.457 6.763 3.836 3.836 0 0 0-.174 5.988 3.818 3.818 0 0 0-1.351 2.92v.188c0 1.05.42 2 1.104 2.691a3.725 3.725 0 0 0 2.619 6.372h4.206a3.725 3.725 0 0 0 3.225-5.592 3.829 3.829 0 0 0 2.208-3.47v-.188a3.817 3.817 0 0 0-1.383-2.946 3.842 3.842 0 0 0-.88-6.374 3.81 3.81 0 0 0 .95-2.524z" fill="url(#h)"/></g><g filter="url(#i)"><path d="M34.57 24.825a4.365 4.365 0 0 0 0-8.73h-4.834a4.365 4.365 0 0 0 0 8.73h4.835z" fill="url(#j)"/><path d="M34.57 24.825a4.365 4.365 0 0 0 0-8.73h-4.834a4.365 4.365 0 0 0 0 8.73h4.835z" fill="url(#k)"/></g><g filter="url(#l)"><path d="M34.237 44.519a4.248 4.248 0 0 0 0-8.496h-4.795a4.248 4.248 0 0 0 0 8.496h4.795z" fill="url(#m)"/><path d="M34.237 44.519a4.248 4.248 0 0 0 0-8.496h-4.795a4.248 4.248 0 0 0 0 8.496h4.795z" fill="url(#n)"/><path d="M34.237 44.519a4.248 4.248 0 0 0 0-8.496h-4.795a4.248 4.248 0 0 0 0 8.496h4.795z" fill="url(#o)"/></g><path d="M34.237 44.519a4.248 4.248 0 0 0 0-8.496h-4.795a4.248 4.248 0 0 0 0 8.496h4.795z" fill="url(#p)"/><path d="M34.237 44.519a4.248 4.248 0 0 0 0-8.496h-4.795a4.248 4.248 0 0 0 0 8.496h4.795z" fill="url(#q)"/><g filter="url(#r)"><path d="M36.381 38.549H30.54a1.107 1.107 0 1 0 0 2.214h5.841a1.107 1.107 0 1 0 0-2.214z" fill="url(#s)"/></g><path d="M35.96 38.548a4.473 4.473 0 1 0 0-8.946h-6.293a4.473 4.473 0 0 0 0 8.946h6.292z" fill="#C4C4C4" fill-opacity=".66"/><g filter="url(#t)"><path d="M40.432 34.184v-.216a4.365 4.365 0 0 0-4.364-4.366h-6.509a4.365 4.365 0 0 0-4.365 4.366v.215a4.365 4.365 0 0 0 4.365 4.365h6.509a4.365 4.365 0 0 0 4.364-4.364z" fill="url(#u)"/><path d="M40.432 34.184v-.216a4.365 4.365 0 0 0-4.364-4.366h-6.509a4.365 4.365 0 0 0-4.365 4.366v.215a4.365 4.365 0 0 0 4.365 4.365h6.509a4.365 4.365 0 0 0 4.364-4.364z" fill="url(#v)"/><path d="M40.432 34.184v-.216a4.365 4.365 0 0 0-4.364-4.366h-6.509a4.365 4.365 0 0 0-4.365 4.366v.215a4.365 4.365 0 0 0 4.365 4.365h6.509a4.365 4.365 0 0 0 4.364-4.364z" fill="url(#w)"/></g><g filter="url(#x)"><path d="M37.828 32.743h-7.873a1.107 1.107 0 1 0 0 2.215h7.873a1.107 1.107 0 0 0 0-2.215z" fill="url(#y)"/></g><g filter="url(#z)"><path d="M40.365 27.31v-.019A4.365 4.365 0 0 0 36 22.926h-6.441a4.365 4.365 0 0 0-4.365 4.365v.02a4.365 4.365 0 0 0 4.365 4.364H36a4.365 4.365 0 0 0 4.365-4.364z" fill="url(#A)"/><path d="M40.365 27.31v-.019A4.365 4.365 0 0 0 36 22.926h-6.441a4.365 4.365 0 0 0-4.365 4.365v.02a4.365 4.365 0 0 0 4.365 4.364H36a4.365 4.365 0 0 0 4.365-4.364z" fill="url(#B)"/></g><path d="M23.334 2.805a4.933 4.933 0 0 0-4.932 4.932v3.83l-.003-.002c0 .843-.117 2.664-.72 3.785-.697 1.294-2.016 2.085-3.096 2.731-.33.198-.636.381-.896.561 1.493 1.196 4.548 3.585 4.624 3.528a543.67 543.67 0 0 1 5.226-2.79l-.072-1.035a4.934 4.934 0 0 0 4.802-4.93V7.737a4.934 4.934 0 0 0-4.933-4.932z" fill="url(#C)"/><path d="M23.334 2.805a4.933 4.933 0 0 0-4.932 4.932v3.83l-.003-.002c0 .843-.117 2.664-.72 3.785-.697 1.294-2.016 2.085-3.096 2.731-.33.198-.636.381-.896.561 1.493 1.196 4.548 3.585 4.624 3.528a543.67 543.67 0 0 1 5.226-2.79l-.072-1.035a4.934 4.934 0 0 0 4.802-4.93V7.737a4.934 4.934 0 0 0-4.933-4.932z" fill="url(#D)"/><path d="M20.214 3.917a4.922 4.922 0 0 0-1.812 3.82v.288h2.229a9.532 9.532 0 0 0-.129-1.722l-.025-.136c-.123-.672-.265-1.44-.263-2.25z" fill="#FFBF71"/><path d="M20.214 3.917a4.922 4.922 0 0 0-1.812 3.82v.288h2.229a9.532 9.532 0 0 0-.129-1.722l-.025-.136c-.123-.672-.265-1.44-.263-2.25z" fill="url(#E)"/><g filter="url(#F)"><path d="M35.601 17.286h-5.43a1.887 1.887 0 1 0 0 3.774h5.43a1.887 1.887 0 1 0 0-3.774z" fill="url(#G)"/></g><g filter="url(#H)"><path d="M37.048 24h-6.984a1.887 1.887 0 1 0 0 3.774h6.984a1.887 1.887 0 1 0 0-3.774z" fill="url(#I)"/></g><g filter="url(#J)"><path d="M27.023 6.818a2.15 2.15 0 1 0-4.298 0v7.696a2.15 2.15 0 1 0 4.297 0V6.818z" fill="url(#K)"/></g><defs><radialGradient id="c" cx="0" cy="0" r="1" gradientUnits="userSpaceOnUse" gradientTransform="matrix(-5.8564 4.72282 -13.93916 -17.28486 30.66 7.268)"><stop stop-color="#FFE34C"/><stop offset="1" stop-color="#FFE34C" stop-opacity="0"/></radialGradient><radialGradient id="k" cx="0" cy="0" r="1" gradientUnits="userSpaceOnUse" gradientTransform="matrix(-2.7671 -2.11308 1.41443 -1.8522 27.576 24.33)"><stop stop-color="#D98320"/><stop offset="1" stop-color="#D98320" stop-opacity="0"/></radialGradient><radialGradient id="D" cx="0" cy="0" r="1" gradientUnits="userSpaceOnUse" gradientTransform="rotate(42.998 -9.188 27.11) scale(4.77851 7.23068)"><stop stop-color="#CDA25E"/><stop offset="1" stop-color="#CDA25E" stop-opacity="0"/></radialGradient><radialGradient id="C" cx="0" cy="0" r="1" gradientUnits="userSpaceOnUse" gradientTransform="matrix(0 9.54019 -3.54214 0 18.805 7.266)"><stop stop-color="#F3A52A"/><stop offset="1" stop-color="#F3A52A" stop-opacity="0"/></radialGradient><radialGradient id="B" cx="0" cy="0" r="1" gradientUnits="userSpaceOnUse" gradientTransform="matrix(8.25101 0 0 3.67271 28.332 30.618)"><stop stop-color="#F29545"/><stop offset="1" stop-color="#F29545" stop-opacity="0"/></radialGradient><radialGradient id="w" cx="0" cy="0" r="1" gradientUnits="userSpaceOnUse" gradientTransform="matrix(12.7556 0 0 3.14472 27.677 31.173)"><stop stop-color="#DA810B"/><stop offset="1" stop-color="#FFB610" stop-opacity="0"/></radialGradient><radialGradient id="E" cx="0" cy="0" r="1" gradientUnits="userSpaceOnUse" gradientTransform="matrix(-2.40867 -.49592 1.08245 -5.25745 20.98 6.676)"><stop offset=".55" stop-color="#CCB28B" stop-opacity="0"/><stop offset="1" stop-color="#CCB28B"/></radialGradient><radialGradient id="d" cx="0" cy="0" r="1" gradientUnits="userSpaceOnUse" gradientTransform="matrix(-6.42308 9.10833 -6.59823 -4.65299 16.963 23.663)"><stop stop-color="#FFCA2E"/><stop offset="1" stop-color="#FFCA2E" stop-opacity="0"/></radialGradient><radialGradient id="e" cx="0" cy="0" r="1" gradientUnits="userSpaceOnUse" gradientTransform="rotate(146.743 10.466 17.937) scale(24.286 42.5014)"><stop offset=".681" stop-color="#E18E3F" stop-opacity="0"/><stop offset="1" stop-color="#E18E3F"/></radialGradient><radialGradient id="v" cx="0" cy="0" r="1" gradientUnits="userSpaceOnUse" gradientTransform="matrix(12.5778 0 0 4.3945 28.281 38.548)"><stop stop-color="#F29545"/><stop offset="1" stop-color="#F29545" stop-opacity="0"/></radialGradient><radialGradient id="n" cx="0" cy="0" r="1" gradientUnits="userSpaceOnUse" gradientTransform="matrix(10.9702 0 0 4.17333 27.887 44.517)"><stop stop-color="#F29545"/><stop offset="1" stop-color="#F29545" stop-opacity="0"/></radialGradient><radialGradient id="o" cx="0" cy="0" r="1" gradientUnits="userSpaceOnUse" gradientTransform="matrix(11.1254 0 0 2.98644 27.36 37.512)"><stop stop-color="#DA810B"/><stop offset="1" stop-color="#FFB610" stop-opacity="0"/></radialGradient><radialGradient id="q" cx="0" cy="0" r="1" gradientUnits="userSpaceOnUse" gradientTransform="matrix(8.40486 0 0 12.634 23.434 40.27)"><stop stop-color="#E38811"/><stop offset="1" stop-color="#E38811" stop-opacity="0"/></radialGradient><linearGradient id="K" x1="26.8" y1="7.958" x2="22.167" y2="7.958" gradientUnits="userSpaceOnUse"><stop stop-color="#FFF166"/><stop offset="1" stop-color="#FFF166" stop-opacity="0"/></linearGradient><linearGradient id="A" x1="40.365" y1="27.302" x2="25.195" y2="27.302" gradientUnits="userSpaceOnUse"><stop stop-color="#FFDB44"/><stop offset="1" stop-color="#F9A928"/></linearGradient><linearGradient id="f" x1="21.285" y1="38.343" x2="21.285" y2="45.995" gradientUnits="userSpaceOnUse"><stop stop-color="#D8796F" stop-opacity="0"/><stop offset="1" stop-color="#D8796F"/></linearGradient><linearGradient id="h" x1="30.15" y1="18.236" x2="30.15" y2="38.168" gradientUnits="userSpaceOnUse"><stop stop-color="#D1730B"/><stop offset="1" stop-color="#E27D47"/></linearGradient><linearGradient id="j" x1="38.935" y1="20.46" x2="25.369" y2="20.46" gradientUnits="userSpaceOnUse"><stop stop-color="#FFDB44"/><stop offset="1" stop-color="#F9A928"/></linearGradient><linearGradient id="y" x1="38.41" y1="33.349" x2="27.538" y2="33.349" gradientUnits="userSpaceOnUse"><stop stop-color="#FFF166"/><stop offset="1" stop-color="#FFF166" stop-opacity="0"/></linearGradient><linearGradient id="m" x1="37.322" y1="40.269" x2="25.194" y2="40.269" gradientUnits="userSpaceOnUse"><stop stop-color="#FFDB44"/><stop offset="1" stop-color="#F9A928"/></linearGradient><linearGradient id="I" x1="38.376" y1="25.035" x2="26.779" y2="25.035" gradientUnits="userSpaceOnUse"><stop stop-color="#FFF166"/><stop offset="1" stop-color="#FFF166" stop-opacity="0"/></linearGradient><linearGradient id="b" x1="28.881" y1="9.959" x2="13.787" y2="41.741" gradientUnits="userSpaceOnUse"><stop stop-color="#FFCA44"/><stop offset="1" stop-color="#F8A528"/></linearGradient><linearGradient id="p" x1="31.839" y1="45.393" x2="31.839" y2="42.645" gradientUnits="userSpaceOnUse"><stop stop-color="#DC7C6A"/><stop offset="1" stop-color="#DC7C6A" stop-opacity="0"/></linearGradient><linearGradient id="G" x1="37.01" y1="18.321" x2="27.088" y2="18.321" gradientUnits="userSpaceOnUse"><stop stop-color="#FFF166"/><stop offset="1" stop-color="#FFF166" stop-opacity="0"/></linearGradient><linearGradient id="s" x1="37.069" y1="39.155" x2="28.386" y2="39.155" gradientUnits="userSpaceOnUse"><stop stop-color="#FFF166"/><stop offset="1" stop-color="#FFF166" stop-opacity="0"/></linearGradient><linearGradient id="u" x1="39.097" y1="34.075" x2="25.194" y2="34.075" gradientUnits="userSpaceOnUse"><stop stop-color="#FFDB44"/><stop offset="1" stop-color="#F9A928"/></linearGradient><filter id="x" x="27.598" y="31.494" width="12.588" height="4.714" filterUnits="userSpaceOnUse" color-interpolation-filters="sRGB"><feFlood flood-opacity="0" result="BackgroundImageFix"/><feBlend in="SourceGraphic" in2="BackgroundImageFix" result="shape"/><feGaussianBlur stdDeviation=".625" result="effect1_foregroundBlur_123_147"/></filter><filter id="g" x="21.467" y="16.236" width="17.364" height="28.922" filterUnits="userSpaceOnUse" color-interpolation-filters="sRGB"><feFlood flood-opacity="0" result="BackgroundImageFix"/><feBlend in="SourceGraphic" in2="BackgroundImageFix" result="shape"/><feGaussianBlur stdDeviation="1" result="effect1_foregroundBlur_123_147"/></filter><filter id="H" x="26.927" y="22.75" width="13.258" height="6.274" filterUnits="userSpaceOnUse" color-interpolation-filters="sRGB"><feFlood flood-opacity="0" result="BackgroundImageFix"/><feBlend in="SourceGraphic" in2="BackgroundImageFix" result="shape"/><feGaussianBlur stdDeviation=".625" result="effect1_foregroundBlur_123_147"/></filter><filter id="F" x="27.034" y="16.036" width="11.704" height="6.274" filterUnits="userSpaceOnUse" color-interpolation-filters="sRGB"><feFlood flood-opacity="0" result="BackgroundImageFix"/><feBlend in="SourceGraphic" in2="BackgroundImageFix" result="shape"/><feGaussianBlur stdDeviation=".625" result="effect1_foregroundBlur_123_147"/></filter><filter id="z" x="24.194" y="20.926" width="18.171" height="11.749" filterUnits="userSpaceOnUse" color-interpolation-filters="sRGB"><feFlood flood-opacity="0" result="BackgroundImageFix"/><feColorMatrix in="SourceAlpha" values="0 0 0 0 0 0 0 0 0 0 0 0 0 0 0 0 0 0 127 0" result="hardAlpha"/><feOffset dx=".5" dy="-.5"/><feGaussianBlur stdDeviation=".75"/><feComposite in2="hardAlpha" operator="out"/><feColorMatrix values="0 0 0 0 0.941176 0 0 0 0 0.643137 0 0 0 0 0.215686 0 0 0 1 0"/><feBlend in2="BackgroundImageFix" result="effect1_dropShadow_123_147"/><feBlend in="SourceGraphic" in2="effect1_dropShadow_123_147" result="shape"/></filter><filter id="J" x="21.475" y="3.418" width="6.797" height="14.495" filterUnits="userSpaceOnUse" color-interpolation-filters="sRGB"><feFlood flood-opacity="0" result="BackgroundImageFix"/><feBlend in="SourceGraphic" in2="BackgroundImageFix" result="shape"/><feGaussianBlur stdDeviation=".625" result="effect1_foregroundBlur_123_147"/></filter><filter id="t" x="24.194" y="27.602" width="18.238" height="11.946" filterUnits="userSpaceOnUse" color-interpolation-filters="sRGB"><feFlood flood-opacity="0" result="BackgroundImageFix"/><feColorMatrix in="SourceAlpha" values="0 0 0 0 0 0 0 0 0 0 0 0 0 0 0 0 0 0 127 0" result="hardAlpha"/><feOffset dx=".5" dy="-.5"/><feGaussianBlur stdDeviation=".75"/><feComposite in2="hardAlpha" operator="out"/><feColorMatrix values="0 0 0 0 0.941176 0 0 0 0 0.643137 0 0 0 0 0.215686 0 0 0 1 0"/><feBlend in2="BackgroundImageFix" result="effect1_dropShadow_123_147"/><feBlend in="SourceGraphic" in2="effect1_dropShadow_123_147" result="shape"/></filter><filter id="r" x="28.183" y="37.299" width="10.555" height="4.714" filterUnits="userSpaceOnUse" color-interpolation-filters="sRGB"><feFlood flood-opacity="0" result="BackgroundImageFix"/><feBlend in="SourceGraphic" in2="BackgroundImageFix" result="shape"/><feGaussianBlur stdDeviation=".625" result="effect1_foregroundBlur_123_147"/></filter><filter id="l" x="24.194" y="34.023" width="16.291" height="11.496" filterUnits="userSpaceOnUse" color-interpolation-filters="sRGB"><feFlood flood-opacity="0" result="BackgroundImageFix"/><feColorMatrix in="SourceAlpha" values="0 0 0 0 0 0 0 0 0 0 0 0 0 0 0 0 0 0 127 0" result="hardAlpha"/><feOffset dx=".5" dy="-.5"/><feGaussianBlur stdDeviation=".75"/><feComposite in2="hardAlpha" operator="out"/><feColorMatrix values="0 0 0 0 0.941176 0 0 0 0 0.643137 0 0 0 0 0.215686 0 0 0 1 0"/><feBlend in2="BackgroundImageFix" result="effect1_dropShadow_123_147"/><feBlend in="SourceGraphic" in2="effect1_dropShadow_123_147" result="shape"/></filter><filter id="i" x="24.371" y="14.595" width="16.564" height="11.73" filterUnits="userSpaceOnUse" color-interpolation-filters="sRGB"><feFlood flood-opacity="0" result="BackgroundImageFix"/><feColorMatrix in="SourceAlpha" values="0 0 0 0 0 0 0 0 0 0 0 0 0 0 0 0 0 0 127 0" result="hardAlpha"/><feOffset dx=".5"/><feGaussianBlur stdDeviation=".75"/><feComposite in2="hardAlpha" operator="out"/><feColorMatrix values="0 0 0 0 0.878431 0 0 0 0 0.541176 0 0 0 0 0.0627451 0 0 0 1 0"/><feBlend in2="BackgroundImageFix" result="effect1_dropShadow_123_147"/><feBlend in="SourceGraphic" in2="effect1_dropShadow_123_147" result="shape"/></filter><filter id="a" x="5.875" y=".718" width="31.82" height="45.801" filterUnits="userSpaceOnUse" color-interpolation-filters="sRGB"><feFlood flood-opacity="0" result="BackgroundImageFix"/><feColorMatrix in="SourceAlpha" values="0 0 0 0 0 0 0 0 0 0 0 0 0 0 0 0 0 0 127 0" result="hardAlpha"/><feOffset dx=".5"/><feGaussianBlur stdDeviation="1"/><feComposite in2="hardAlpha" operator="out"/><feColorMatrix values="0 0 0 0 0.847059 0 0 0 0 0.458824 0 0 0 0 0.360784 0 0 0 1 0"/><feBlend in2="BackgroundImageFix" result="effect1_dropShadow_123_147"/><feBlend in="SourceGraphic" in2="effect1_dropShadow_123_147" result="shape"/></filter></defs></svg>