<svg width="48" height="48" fill="none" xmlns="http://www.w3.org/2000/svg"><mask id="a" style="mask-type:luminance" maskUnits="userSpaceOnUse" x="0" y="0" width="48" height="48"><path d="M0 0h48v48H0V0z" fill="#fff"/></mask><g mask="url(#a)"><path d="M23.998 44.997c14.001 0 20.999-9.402 20.999-21 0-11.595-6.998-20.997-21-20.997C9.997 3 3 12.402 3 23.998c0 11.597 6.996 20.999 20.998 20.999z" fill="url(#b)"/><path d="M23.998 44.997c14.001 0 20.999-9.402 20.999-21 0-11.595-6.998-20.997-21-20.997C9.997 3 3 12.402 3 23.998c0 11.597 6.996 20.999 20.998 20.999z" fill="url(#c)" fill-opacity=".6"/><path d="M18 39c.5-1 2.4-3 6-3s5.5 2 6 3" stroke="url(#d)" stroke-width="2" stroke-linecap="round"/><path d="M13.5 36a7.5 7.5 0 1 0 0-15 7.5 7.5 0 0 0 0 15z" fill="url(#e)"/><path d="M29.25 36a6.75 6.75 0 1 0 0-13.5 6.75 6.75 0 0 0 0 13.5z" fill="url(#f)"/><path d="M15.75 33a6.75 6.75 0 1 0 0-13.5 6.75 6.75 0 0 0 0 13.5zm16.5 0a6.75 6.75 0 1 0 0-13.5 6.75 6.75 0 0 0 0 13.5z" fill="#fff"/><path d="M18 30a3 3 0 1 0 0-6 3 3 0 0 0 0 6z" fill="url(#g)"/><path d="M30 30a3 3 0 1 0 0-6 3 3 0 0 0 0 6z" fill="url(#h)"/><path d="M15.375 16.875s1.125 4.5 6 4.5" stroke="url(#i)" stroke-width="1.5" stroke-linecap="round" stroke-linejoin="round"/><path d="M32.625 16.875s-1.125 4.5-6 4.5" stroke="url(#j)" stroke-width="1.5" stroke-linecap="round" stroke-linejoin="round"/><path d="M12 9S8.412 7.9 6.687 4.84c-.42-.765-.9 0-.9 0S2.775 10.5 6 16.5c.39 1.035 2.265 1.5 3.75 1.5 2.685 0 4.662-2.3 4.662-4.97C14.427 11.2 13.62 9.54 12 9z" fill="url(#k)"/><path d="M36.009 9s3.588-1.1 5.313-4.16c.42-.765.9 0 .9 0s3.012 5.66-.213 11.66c-.39 1.035-2.265 1.5-3.75 1.5-2.685 0-4.662-2.3-4.662-4.97-.015-1.83.792-3.49 2.412-4.03z" fill="url(#l)"/><path d="M36.009 9s3.588-1.1 5.313-4.16c.42-.765.9 0 .9 0s3.012 5.66-.213 11.66c-.39 1.035-2.265 1.5-3.75 1.5-2.685 0-4.662-2.3-4.662-4.97-.015-1.83.792-3.49 2.412-4.03z" fill="url(#m)"/></g><defs><radialGradient id="b" cx="0" cy="0" r="1" gradientUnits="userSpaceOnUse" gradientTransform="matrix(-3 37.5001 -37.5001 -3 32.25 15)"><stop stop-color="#9F70B8"/><stop offset=".514" stop-color="#8543A8"/><stop offset=".714" stop-color="#9344BB"/><stop offset=".889" stop-color="#6B438B"/></radialGradient><radialGradient id="m" cx="0" cy="0" r="1" gradientUnits="userSpaceOnUse" gradientTransform="matrix(-5.24997 22.49992 -7.71351 -1.79982 42 6.75)"><stop stop-color="#B676D6"/><stop offset=".305" stop-color="#B676D6" stop-opacity="0"/></radialGradient><radialGradient id="l" cx="0" cy="0" r="1" gradientUnits="userSpaceOnUse" gradientTransform="rotate(-8.366 62.524 -150.072) scale(25.7742)"><stop offset=".473" stop-color="#613184"/><stop offset=".727" stop-color="#9353B8"/><stop offset=".946" stop-color="#792F9F"/></radialGradient><radialGradient id="e" cx="0" cy="0" r="1" gradientUnits="userSpaceOnUse" gradientTransform="rotate(135 4.972 15.338) scale(14.6135 7.56348)"><stop stop-color="#392108"/><stop offset="1" stop-color="#C87928" stop-opacity="0"/></radialGradient><radialGradient id="f" cx="0" cy="0" r="1" gradientUnits="userSpaceOnUse" gradientTransform="matrix(-8.625 8.625 -4.86895 -4.86895 34.5 24)"><stop stop-color="#392108"/><stop offset="1" stop-color="#C87928" stop-opacity="0"/></radialGradient><radialGradient id="k" cx="0" cy="0" r="1" gradientUnits="userSpaceOnUse" gradientTransform="rotate(165.379 8.856 2.28) scale(17.8273)"><stop offset=".473" stop-color="#8649AC"/><stop offset=".645" stop-color="#AE7CC7"/><stop offset=".759" stop-color="#9353B3"/><stop offset=".946" stop-color="#733295"/></radialGradient><radialGradient id="c" cx="0" cy="0" r="1" gradientUnits="userSpaceOnUse" gradientTransform="rotate(135 9.15 16.092) scale(67.8822)"><stop offset=".315" stop-opacity="0"/><stop offset="1"/></radialGradient><linearGradient id="i" x1="17.25" y1="16.5" x2="17.25" y2="18.75" gradientUnits="userSpaceOnUse"><stop offset=".03" stop-color="#524049"/><stop offset="1" stop-color="#4A2C42"/></linearGradient><linearGradient id="j" x1="30.75" y1="16.5" x2="30.75" y2="18.75" gradientUnits="userSpaceOnUse"><stop offset=".03" stop-color="#524049"/><stop offset="1" stop-color="#4A2C42"/></linearGradient><linearGradient id="g" x1="30.922" y1="24" x2="29.89" y2="30.045" gradientUnits="userSpaceOnUse"><stop stop-color="#553B3E"/><stop offset="1" stop-color="#3D2432"/></linearGradient><linearGradient id="d" x1="24" y1="34.5" x2="24" y2="37.5" gradientUnits="userSpaceOnUse"><stop stop-color="#4F3C43"/><stop offset="1" stop-color="#512756"/></linearGradient><linearGradient id="h" x1="30.922" y1="24" x2="29.89" y2="30.045" gradientUnits="userSpaceOnUse"><stop stop-color="#553B3E"/><stop offset="1" stop-color="#3D2432"/></linearGradient></defs></svg>