<svg width="48" height="48" fill="none" xmlns="http://www.w3.org/2000/svg"><path d="M23.998 44.997c14.001 0 20.999-9.402 20.999-21 0-11.595-6.998-20.997-21-20.997C9.997 3 3 12.402 3 23.998c0 11.597 6.996 20.999 20.998 20.999z" fill="url(#a)"/><path d="M23.998 44.997c14.001 0 20.999-9.402 20.999-21 0-11.595-6.998-20.997-21-20.997C9.997 3 3 12.402 3 23.998c0 11.597 6.996 20.999 20.998 20.999z" fill="url(#b)"/><path d="M23.998 44.997c14.001 0 20.999-9.402 20.999-21 0-11.595-6.998-20.997-21-20.997C9.997 3 3 12.402 3 23.998c0 11.597 6.996 20.999 20.998 20.999z" fill="url(#c)"/><path d="M23.998 44.997c14.001 0 20.999-9.402 20.999-21 0-11.595-6.998-20.997-21-20.997C9.997 3 3 12.402 3 23.998c0 11.597 6.996 20.999 20.998 20.999z" fill="url(#d)" fill-opacity=".6"/><path d="M23.998 44.997c14.001 0 20.999-9.402 20.999-21 0-11.595-6.998-20.997-21-20.997C9.997 3 3 12.402 3 23.998c0 11.597 6.996 20.999 20.998 20.999z" fill="url(#e)"/><path d="M23.998 44.997c14.001 0 20.999-9.402 20.999-21 0-11.595-6.998-20.997-21-20.997C9.997 3 3 12.402 3 23.998c0 11.597 6.996 20.999 20.998 20.999z" fill="url(#f)"/><path d="M23.998 44.997c14.001 0 20.999-9.402 20.999-21 0-11.595-6.998-20.997-21-20.997C9.997 3 3 12.402 3 23.998c0 11.597 6.996 20.999 20.998 20.999z" fill="url(#g)"/><path d="M23.998 44.997c14.001 0 20.999-9.402 20.999-21 0-11.595-6.998-20.997-21-20.997C9.997 3 3 12.402 3 23.998c0 11.597 6.996 20.999 20.998 20.999z" fill="url(#h)"/><path d="M24 37.5C10.5 37.5 10.5 24 10.5 24h27s0 13.5-13.5 13.5z" fill="url(#i)"/><path d="M12 24.75V24h24v.75a1.5 1.5 0 0 1-1.5 1.5h-21a1.5 1.5 0 0 1-1.5-1.5z" fill="url(#j)"/><path d="M15.75 23.25s-4.5-.75-7.575-4.3c-3.135-3.617-.209-8.8 5.325-6.2 2.365-3.858 8.235-2.43 7.455 2.25-.75 4.5-5.205 8.25-5.205 8.25z" fill="url(#k)"/><path d="M29.276 23.25s4.5-.75 7.574-4.3c3.136-3.617.21-8.8-5.325-6.2-2.365-3.858-8.234-2.43-7.454 2.25.75 4.5 5.204 8.25 5.204 8.25z" fill="url(#l)"/><path d="M15.89 21.405c-1.57-.495-4.213-1.617-6.236-3.954-3.135-3.618-.209-8.8 5.325-6.201 2.365-3.858 8.235-2.43 7.455 2.25-.524 3.135-2.843 5.905-4.203 7.299a2.29 2.29 0 0 1-2.342.606z" fill="url(#m)"/><path d="M32.115 21.405c1.569-.495 4.212-1.617 6.235-3.954 3.136-3.618.21-8.8-5.325-6.201-2.365-3.858-8.234-2.43-7.454 2.25.523 3.135 2.842 5.905 4.202 7.299.616.628 1.505.87 2.342.606z" fill="url(#n)"/><path d="M17.331 17.148c.879-.879.166-3.015-1.59-4.773-1.758-1.757-3.895-2.47-4.774-1.59-.879.878-.166 3.015 1.591 4.772 1.757 1.757 3.894 2.47 4.773 1.591z" fill="url(#o)"/><path d="M32.388 18.183c1.615-.372 2.472-2.637 1.914-5.059s-2.319-4.084-3.933-3.712c-1.615.372-2.472 2.637-1.914 5.058.558 2.422 2.319 4.084 3.933 3.713z" fill="url(#p)"/><path d="M18.026 13.027a2.25 2.25 0 1 0 3.182-3.182 2.25 2.25 0 0 0-3.182 3.182z" fill="url(#q)"/><path d="M34.435 15.057c.586.586 2.01.111 3.182-1.06 1.172-1.172 1.647-2.597 1.06-3.182-.585-.586-2.01-.111-3.181 1.06-1.172 1.172-1.647 2.597-1.06 3.182z" fill="url(#r)"/><defs><radialGradient id="a" cx="0" cy="0" r="1" gradientUnits="userSpaceOnUse" gradientTransform="rotate(132.839 16.179 15.098) scale(56.2549)"><stop stop-color="#FFF478"/><stop offset=".475" stop-color="#FFB02E"/><stop offset="1" stop-color="#F70A8D"/></radialGradient><radialGradient id="r" cx="0" cy="0" r="1" gradientUnits="userSpaceOnUse" gradientTransform="rotate(135 15.6 14.04) scale(3 1.5)"><stop stop-color="#EC6686"/><stop offset="1" stop-color="#EC6686" stop-opacity="0"/></radialGradient><radialGradient id="c" cx="0" cy="0" r="1" gradientUnits="userSpaceOnUse" gradientTransform="matrix(-5.25004 26.25004 -33.62126 -6.7243 23.999 18.75)"><stop offset=".788" stop-color="#F59639" stop-opacity="0"/><stop offset=".973" stop-color="#FF7DCE"/></radialGradient><radialGradient id="d" cx="0" cy="0" r="1" gradientUnits="userSpaceOnUse" gradientTransform="matrix(-43.5 43.5 -43.5 -43.5 27 21)"><stop offset=".315" stop-opacity="0"/><stop offset="1"/></radialGradient><radialGradient id="e" cx="0" cy="0" r="1" gradientUnits="userSpaceOnUse" gradientTransform="rotate(77.692 -3.832 27.651) scale(42.2203)"><stop offset=".508" stop-color="#7D6133" stop-opacity="0"/><stop offset="1" stop-color="#715B32"/></radialGradient><radialGradient id="f" cx="0" cy="0" r="1" gradientUnits="userSpaceOnUse" gradientTransform="rotate(55.713 -11.04 35.79) scale(19.9702 14.4755)"><stop stop-color="#FFB849"/><stop offset="1" stop-color="#FFB847" stop-opacity="0"/></radialGradient><radialGradient id="g" cx="0" cy="0" r="1" gradientUnits="userSpaceOnUse" gradientTransform="matrix(17.24997 3 -3 17.24997 30.75 27)"><stop stop-color="#FFA64B"/><stop offset=".9" stop-color="#FFAE46" stop-opacity="0"/></radialGradient><radialGradient id="h" cx="0" cy="0" r="1" gradientUnits="userSpaceOnUse" gradientTransform="rotate(43.971 -14.74 43.76) scale(88.5793)"><stop offset=".185" stop-opacity="0"/><stop offset="1" stop-opacity=".4"/></radialGradient><radialGradient id="i" cx="0" cy="0" r="1" gradientUnits="userSpaceOnUse" gradientTransform="matrix(0 -16.5 33 0 24 40.5)"><stop stop-color="#F70A8D"/><stop offset="1" stop-color="#89029C"/></radialGradient><radialGradient id="b" cx="0" cy="0" r="1" gradientUnits="userSpaceOnUse" gradientTransform="rotate(131.878 16.11 15.29) scale(58.423)"><stop stop-color="#FFF478"/><stop offset=".475" stop-color="#FFB02E"/><stop offset="1" stop-color="#F70A8D"/></radialGradient><radialGradient id="k" cx="0" cy="0" r="1" gradientUnits="userSpaceOnUse" gradientTransform="matrix(-17.99997 -8.25015 3.4293 -7.48196 21 21)"><stop stop-color="#CC7521"/><stop offset="1" stop-color="#E6872B" stop-opacity="0"/></radialGradient><radialGradient id="l" cx="0" cy="0" r="1" gradientUnits="userSpaceOnUse" gradientTransform="rotate(122.005 10.428 16.564) scale(7.07548)"><stop stop-color="#EC812A"/><stop offset="1" stop-color="#FBA84C" stop-opacity="0"/></radialGradient><radialGradient id="q" cx="0" cy="0" r="1" gradientUnits="userSpaceOnUse" gradientTransform="rotate(135 7.44 9.78) scale(2.25)"><stop stop-color="#EC6686"/><stop offset="1" stop-color="#EC6686" stop-opacity="0"/></radialGradient><radialGradient id="p" cx="0" cy="0" r="1" gradientUnits="userSpaceOnUse" gradientTransform="rotate(68.199 5.78 30.015) scale(4.03887 2.73713)"><stop stop-color="#EC6686"/><stop offset=".26" stop-color="#EC6686"/><stop offset="1" stop-color="#EC6686" stop-opacity="0"/></radialGradient><radialGradient id="o" cx="0" cy="0" r="1" gradientUnits="userSpaceOnUse" gradientTransform="matrix(3.28962 3.28962 -1.67202 1.67202 14.148 13.965)"><stop stop-color="#EC6686"/><stop offset="1" stop-color="#EC6686" stop-opacity="0"/></radialGradient><linearGradient id="n" x1="36" y1="10.5" x2="28.5" y2="22.5" gradientUnits="userSpaceOnUse"><stop stop-color="#CA0B4A"/><stop offset="1" stop-color="#F70A8D"/></linearGradient><linearGradient id="m" x1="19.479" y1="10.5" x2="14.979" y2="21" gradientUnits="userSpaceOnUse"><stop stop-color="#CA0B4A"/><stop offset="1" stop-color="#F70A8D"/></linearGradient><linearGradient id="j" x1="24" y1="24" x2="24" y2="26.25" gradientUnits="userSpaceOnUse"><stop stop-color="#ECCDFF"/><stop offset="1" stop-color="#fff"/></linearGradient></defs></svg>