<svg width="48" height="48" fill="none" xmlns="http://www.w3.org/2000/svg"><path d="M23.998 44.997c14.001 0 20.999-9.402 20.999-21 0-11.595-6.998-20.997-21-20.997C9.997 3 3 12.402 3 23.998c0 11.597 6.996 20.999 20.998 20.999z" fill="url(#a)"/><path d="M23.998 44.997c14.001 0 20.999-9.402 20.999-21 0-11.595-6.998-20.997-21-20.997C9.997 3 3 12.402 3 23.998c0 11.597 6.996 20.999 20.998 20.999z" fill="url(#b)"/><path d="M23.998 44.997c14.001 0 20.999-9.402 20.999-21 0-11.595-6.998-20.997-21-20.997C9.997 3 3 12.402 3 23.998c0 11.597 6.996 20.999 20.998 20.999z" fill="url(#c)"/><path d="M23.998 44.997c14.001 0 20.999-9.402 20.999-21 0-11.595-6.998-20.997-21-20.997C9.997 3 3 12.402 3 23.998c0 11.597 6.996 20.999 20.998 20.999z" fill="url(#d)" fill-opacity=".6"/><path d="M23.998 44.997c14.001 0 20.999-9.402 20.999-21 0-11.595-6.998-20.997-21-20.997C9.997 3 3 12.402 3 23.998c0 11.597 6.996 20.999 20.998 20.999z" fill="url(#e)"/><path d="M23.998 44.997c14.001 0 20.999-9.402 20.999-21 0-11.595-6.998-20.997-21-20.997C9.997 3 3 12.402 3 23.998c0 11.597 6.996 20.999 20.998 20.999z" fill="url(#f)"/><path d="M23.998 44.997c14.001 0 20.999-9.402 20.999-21 0-11.595-6.998-20.997-21-20.997C9.997 3 3 12.402 3 23.998c0 11.597 6.996 20.999 20.998 20.999z" fill="url(#g)"/><path d="M23.998 44.997c14.001 0 20.999-9.402 20.999-21 0-11.595-6.998-20.997-21-20.997C9.997 3 3 12.402 3 23.998c0 11.597 6.996 20.999 20.998 20.999z" fill="url(#h)"/><path d="M23.998 44.997c14.001 0 20.999-9.402 20.999-21 0-11.595-6.998-20.997-21-20.997C9.997 3 3 12.402 3 23.998c0 11.597 6.996 20.999 20.998 20.999z" fill="url(#i)"/><path d="M23.998 44.997c14.001 0 20.999-9.402 20.999-21 0-11.595-6.998-20.997-21-20.997C9.997 3 3 12.402 3 23.998c0 11.597 6.996 20.999 20.998 20.999z" fill="url(#j)"/><path d="M23.998 44.997c14.001 0 20.999-9.402 20.999-21 0-11.595-6.998-20.997-21-20.997C9.997 3 3 12.402 3 23.998c0 11.597 6.996 20.999 20.998 20.999z" fill="url(#k)"/><path d="M23.998 44.997c14.001 0 20.999-9.402 20.999-21 0-11.595-6.998-20.997-21-20.997C9.997 3 3 12.402 3 23.998c0 11.597 6.996 20.999 20.998 20.999z" fill="url(#l)"/><path d="M23.998 44.997c14.001 0 20.999-9.402 20.999-21 0-11.595-6.998-20.997-21-20.997C9.997 3 3 12.402 3 23.998c0 11.597 6.996 20.999 20.998 20.999z" fill="url(#m)"/><path d="M15.63 28.368a6.31 6.31 0 1 0 0-12.62 6.31 6.31 0 0 0 0 12.62zm16.722.116a6.368 6.368 0 0 0 4.502-10.87 6.368 6.368 0 0 0-10.869 4.503 6.367 6.367 0 0 0 6.367 6.366z" fill="#fff"/><path d="M16.5 26.532a4.5 4.5 0 1 0 0-8.999 4.5 4.5 0 0 0 0 8.999z" fill="url(#n)"/><path d="M31.5 26.532a4.5 4.5 0 1 0 0-8.999 4.5 4.5 0 0 0 0 8.999z" fill="url(#o)"/><path fill-rule="evenodd" clip-rule="evenodd" d="M18.386 33.496a1.5 1.5 0 0 1 2.117-.11c.776.697 2.066 1.132 3.497 1.132s2.721-.435 3.497-1.133a1.5 1.5 0 0 1 2.006 2.23c-1.474 1.327-3.559 1.904-5.503 1.904s-4.029-.577-5.503-1.904a1.5 1.5 0 0 1-.111-2.119z" fill="url(#p)"/><path d="M31.5 34.285C31.5 31.92 33.514 30 36 30s4.5 1.92 4.5 4.285v6.43C40.5 43.08 38.486 45 36 45s-4.5-1.92-4.5-4.285v-6.43z" fill="url(#q)"/><defs><radialGradient id="i" cx="0" cy="0" r="1" gradientUnits="userSpaceOnUse" gradientTransform="rotate(133.727 2.265 14.492) scale(7.93609)"><stop stop-color="#392108"/><stop offset="1" stop-color="#C87928" stop-opacity="0"/></radialGradient><radialGradient id="a" cx="0" cy="0" r="1" gradientUnits="userSpaceOnUse" gradientTransform="rotate(132.839 16.179 15.098) scale(56.2549)"><stop stop-color="#FFF478"/><stop offset=".475" stop-color="#FFB02E"/><stop offset="1" stop-color="#F70A8D"/></radialGradient><radialGradient id="c" cx="0" cy="0" r="1" gradientUnits="userSpaceOnUse" gradientTransform="matrix(-5.25004 26.25004 -33.62126 -6.7243 23.999 18.75)"><stop offset=".788" stop-color="#F59639" stop-opacity="0"/><stop offset=".973" stop-color="#FF7DCE"/></radialGradient><radialGradient id="d" cx="0" cy="0" r="1" gradientUnits="userSpaceOnUse" gradientTransform="matrix(-43.5 43.5 -43.5 -43.5 27 21)"><stop offset=".315" stop-opacity="0"/><stop offset="1"/></radialGradient><radialGradient id="e" cx="0" cy="0" r="1" gradientUnits="userSpaceOnUse" gradientTransform="rotate(77.692 -3.832 27.651) scale(42.2203)"><stop offset=".508" stop-color="#7D6133" stop-opacity="0"/><stop offset="1" stop-color="#715B32"/></radialGradient><radialGradient id="f" cx="0" cy="0" r="1" gradientUnits="userSpaceOnUse" gradientTransform="rotate(55.713 -11.04 35.79) scale(19.9702 14.4755)"><stop stop-color="#FFB849"/><stop offset="1" stop-color="#FFB847" stop-opacity="0"/></radialGradient><radialGradient id="g" cx="0" cy="0" r="1" gradientUnits="userSpaceOnUse" gradientTransform="matrix(17.24997 3 -3 17.24997 30.75 27)"><stop stop-color="#FFA64B"/><stop offset=".9" stop-color="#FFAE46" stop-opacity="0"/></radialGradient><radialGradient id="h" cx="0" cy="0" r="1" gradientUnits="userSpaceOnUse" gradientTransform="rotate(43.971 -14.74 43.76) scale(88.5793)"><stop offset=".185" stop-opacity="0"/><stop offset="1" stop-opacity=".4"/></radialGradient><radialGradient id="b" cx="0" cy="0" r="1" gradientUnits="userSpaceOnUse" gradientTransform="rotate(131.878 16.11 15.29) scale(58.423)"><stop stop-color="#FFF478"/><stop offset=".475" stop-color="#FFB02E"/><stop offset="1" stop-color="#F70A8D"/></radialGradient><radialGradient id="j" cx="0" cy="0" r="1" gradientUnits="userSpaceOnUse" gradientTransform="rotate(148.696 12.525 16.054) scale(7.3771)"><stop stop-color="#392108"/><stop offset="1" stop-color="#C87928" stop-opacity="0"/></radialGradient><radialGradient id="k" cx="0" cy="0" r="1" gradientUnits="userSpaceOnUse" gradientTransform="rotate(26.381 -56.89 87.324) scale(5.52237)"><stop stop-color="#BE5F45"/><stop offset="1" stop-color="#C87928" stop-opacity="0"/></radialGradient><radialGradient id="l" cx="0" cy="0" r="1" gradientUnits="userSpaceOnUse" gradientTransform="matrix(3.75 -5.25 5.25 3.75 33.75 39)"><stop stop-color="#B3622E"/><stop offset="1" stop-color="#C87928" stop-opacity="0"/></radialGradient><radialGradient id="m" cx="0" cy="0" r="1" gradientUnits="userSpaceOnUse" gradientTransform="matrix(0 5.09451 -2.77876 0 33.456 35.22)"><stop stop-color="#B3622E"/><stop offset="1" stop-color="#C87928" stop-opacity="0"/></radialGradient><radialGradient id="p" cx="0" cy="0" r="1" gradientUnits="userSpaceOnUse" gradientTransform="matrix(0 6.21321 -8.41848 0 24 31.87)"><stop offset=".348" stop-color="#4D3027"/><stop offset=".628" stop-color="#57444A"/><stop offset="1" stop-color="#502A56"/></radialGradient><radialGradient id="q" cx="0" cy="0" r="1" gradientUnits="userSpaceOnUse" gradientTransform="matrix(-4.49998 15.68193 -6.36147 -1.82544 39 30.681)"><stop stop-color="#5C98FF"/><stop offset=".806" stop-color="#3D5BF1"/><stop offset=".962" stop-color="#6065CA"/></radialGradient><linearGradient id="o" x1="24.75" y1="16.032" x2="23.25" y2="26.532" gradientUnits="userSpaceOnUse"><stop stop-color="#553B3E"/><stop offset="1" stop-color="#3D2432"/></linearGradient><linearGradient id="n" x1="24.75" y1="16.032" x2="23.25" y2="26.532" gradientUnits="userSpaceOnUse"><stop stop-color="#553B3E"/><stop offset="1" stop-color="#3D2432"/></linearGradient></defs></svg>