<svg width="777" height="408" fill="none" xmlns="http://www.w3.org/2000/svg"><g clip-path="url(#a)"><path d="M775.35 297.398c-4.07 25.87-16.68 50.98-37.49 66.87-20.48 15.65-46.72 21.21-72.05 25.99a2863.881 2863.881 0 0 1-91.39 15.74c-4.33.69-8.663 1.357-13 2H383.5c-.18-.24-.37-.49-.55-.74-.29-.42-.58-.84-.86-1.26-.16-.24-.32-.49-.48-.74h111.6a11.96 11.96 0 0 0 11.95-11.94v-148.96c.72-2.26 1.39-4.53 2-6.83a180.074 180.074 0 0 0 5.53-32.71c.6-7.7.78-15.4.65-23.11-.37-21.19-3.14-42.38-6.15-63.42-.22-1.55-.45-3.11-.67-4.66-2.12-14.62-4.05-30.53 3.32-43.34 8.43-14.66 27.14-20.77 43.99-19.27 30.31 2.71 55.84 25.92 69.11 53.31 13.26 27.38 16.23 58.52 17.44 88.92.64 16.12.57 32.96-1.68 49.13 7.6-17.38 15.207-34.76 22.82-52.14 4.06-9.27 8.33-18.84 15.85-25.62 15.72-14.19 41.72-11.33 58.51 1.59 16.78 12.93 25.98 33.36 32.1 53.63 7.58 25.07 11.45 51.69 7.37 77.56z" fill="#868686" fill-opacity=".2"/><path d="M708.298 156.886c10.992 19.468 16.036 41.792 15.915 64.07a155.09 155.09 0 0 1-14.331 63.93 160.602 160.602 0 0 1-34.467 48.298 146.327 146.327 0 0 1-49.532 31.64 129.438 129.438 0 0 1-67.21 6.387 130.545 130.545 0 0 1-9.339-1.96c-1.874-.462-2.674 2.43-.798 2.893a132.78 132.78 0 0 0 71.242-2.05 146.771 146.771 0 0 0 52.183-29.686 162.902 162.902 0 0 0 37.426-47.712 159.494 159.494 0 0 0 17.575-63.863c1.31-22.612-2.48-45.626-12.259-66.138a117.12 117.12 0 0 0-3.814-7.323 1.502 1.502 0 0 0-2.59 1.514h-.001z" fill="#fff"/><path d="M549.089 50.622a325.32 325.32 0 0 1 28.297 70.982 342.845 342.845 0 0 1 5.833 151.56 324.084 324.084 0 0 1-22.79 72.985c-10.418 23.147-25.419 47.536-51.041 55.64a53.514 53.514 0 0 1-8.86 1.981c-1.904.261-1.094 3.152.798 2.893 26.504-3.638 44.921-25.658 56.472-48.104 11.95-23.225 20.46-48.445 26.12-73.909a345.527 345.527 0 0 0-1.18-154.121 330.41 330.41 0 0 0-26.53-72.797 314.704 314.704 0 0 0-4.529-8.624c-.923-1.697-3.514-.184-2.59 1.514z" fill="#fff"/><path d="M423.64 46.258h-179.6a13.766 13.766 0 0 0-13.75 13.75v89.99h27.64a11.884 11.884 0 0 1 10.11 5.59l9.58 15.25 9.16 14.57 1.72 2.74 10.48 16.67.12.19h138.29v-145a13.768 13.768 0 0 0-13.75-13.75z" fill="#CCC"/><path d="M352.45 73.768h-88.99a8.896 8.896 0 0 0 0 17.79h88.99a8.896 8.896 0 1 0 0-17.79zm49.35 43.68H264.27a9.71 9.71 0 0 0 0 19.42H401.8a9.71 9.71 0 0 0 0-19.42zm8.78 39.57a9.703 9.703 0 0 0-8.78-5.59H264.27c-.21 0-.41.01-.62.02a11.913 11.913 0 0 1 4.39 4.14l9.58 15.25H401.8a9.692 9.692 0 0 0 8.188-4.497 9.703 9.703 0 0 0 .592-9.323zm.83 36.79a9.705 9.705 0 0 0-9.61-8.4H286.78l1.72 2.74 10.48 16.67H401.8a9.599 9.599 0 0 0 5.63-1.81 9.697 9.697 0 0 0 3.98-9.2z" fill="#fff"/><path d="m521.19 123.758-14-5.47-69.8-27.24-83.51-32.59a13.775 13.775 0 0 0-17.81 7.82l-2.92 7.49-6.95 17.79-10.1 25.89-7.58 19.42-5.68 14.56-7.58 19.41-5.69 14.57-.16.42-.91 2.32 10.48 16.67.12.19h194.11a11.898 11.898 0 0 1 5.149 1.165 11.905 11.905 0 0 1 4.141 3.275l.82-2.08 10.02-25.66 15.66-40.13a13.777 13.777 0 0 0-7.81-17.82z" fill="#0B5BF4"/><path d="m444.87 123.498-7.48-2.92-75.42-29.43a8.93 8.93 0 0 0-11.53 5.05 8.928 8.928 0 0 0 5.06 11.53l24.91 9.72 30.81 12.02 26.17 10.22 1.01.39a8.9 8.9 0 0 0 6.47-16.58zm30.08 58.64-37.56-14.66-26.81-10.46-14.32-5.59-37.3-14.56-12.12-4.73a9.71 9.71 0 0 0-12.23 4.73c-.12.25-.24.51-.34.78a9.697 9.697 0 0 0 .151 7.426 9.714 9.714 0 0 0 5.359 5.144l3.1 1.21 49.72 19.41 44.79 17.48 30.5 11.91a9.636 9.636 0 0 0 3.52.66 9.703 9.703 0 0 0 9.554-7.905 9.702 9.702 0 0 0-6.014-10.845zm-37.56 21.81-2.41-.94-23.57-9.2-21.53-8.4-37.34-14.57-18.06-7.05a9.722 9.722 0 0 0-3.746-.694 9.71 9.71 0 0 0-8.731 13.651 9.705 9.705 0 0 0 5.427 5.133l9.04 3.53 45.1 17.6 4.64 1.81.48.19h53.41l-2.71-1.06zm-91.23.87-4.64-1.81-19.39-7.57a9.688 9.688 0 0 0-8.38.63 9.69 9.69 0 0 0-4.74 6.94 9.212 9.212 0 0 0-.11 1.81 1.1 1.1 0 0 0 .01.19h37.74l-.49-.19z" fill="#fff"/><path d="m386.21 204.818-4.64-1.81h-72.56a9.212 9.212 0 0 0-.11 1.81h-9.92l.12.19h87.59l-.48-.19zm0 0h-87.23l.12.19h87.59l-.48-.19zm0 0h-87.23l.12.19h87.59l-.48-.19zm.48.19-.48-.19h-87.23l.12.19h87.59zm-175.01 200.25a11.962 11.962 0 0 1-8.438-3.502 11.962 11.962 0 0 1-3.502-8.438v-231.37a11.96 11.96 0 0 1 11.94-11.95h18.61v-2l-18.61.57a13.966 13.966 0 0 0-13.94 13.95v231.37a13.952 13.952 0 0 0 8.17 12.68h176.18c-.16-.24-.32-.49-.48-.74l-169.93-.57zm291.64-197.89a13.882 13.882 0 0 0-10.11-4.36h-193l-10.8-17.18-.26-.42-9.16-14.57-10.26-16.32a13.971 13.971 0 0 0-11.8-6.52h-46.25a13.966 13.966 0 0 0-13.94 13.95v231.37a13.952 13.952 0 0 0 8.17 12.68 13.746 13.746 0 0 0 5.77 1.26l281.53.57a13.795 13.795 0 0 0 5.78-1.26 13.947 13.947 0 0 0 8.17-12.68v-176.36a13.876 13.876 0 0 0-3.84-10.16zm1.84 185.95a11.958 11.958 0 0 1-11.95 11.94H211.68a11.962 11.962 0 0 1-8.438-3.502 11.962 11.962 0 0 1-3.502-8.438v-231.37a11.96 11.96 0 0 1 11.94-11.95h46.25a11.873 11.873 0 0 1 10.11 5.59l9.58 15.25 9.16 14.57 1.72 2.74 10.48 16.67.12.19h194.11a11.961 11.961 0 0 1 11.95 11.95v176.36zm-118.95-188.5h-87.23l.12.19h87.59l-.48-.19zm0 0h-87.23l.12.19h87.59l-.48-.19zm0 0h-87.23l.12.19h87.59l-.48-.19zm0 0-4.64-1.81-81.36-175.79-10.8-17.18-.91 2.32 10.48 16.67.12.19h87.59l-.48 175.6z" fill="#3F3D56"/><path d="m156.928 287.77-5.728 11.976-48.917-16.394 8.453-17.675 46.192 22.093z" fill="#FFB8B8"/><path d="m143.155 307.775 11.579-24.207 14.541 6.955-18.001 37.637-1.112-.532a14.887 14.887 0 0 1-7.007-19.853z" fill="#2F2E41"/><path d="m168.459 394.715-13.267-.448-.559-51.644 15.553.918-1.727 51.174z" fill="#FFB8B8"/><path d="m144.611 390.115 26.819.905-.544 16.11-41.697-1.407.042-1.232a14.886 14.886 0 0 1 15.38-14.376zm45.213-211.536s-40.605-10.287-59.012 4.872l-10.287 29.777L79.38 271.7l59.554 35.732 10.828-27.07-25.987-12.994 31.4-27.07-5.413 142.93 20.573 3.248s45.477-176.496 19.489-207.897z" fill="#2F2E41"/><path d="m128.22 187.855.496-.88c5.217-9.274 4.371-24.377 2.744-35.413-1.363-9.244-1.323-25.535-1.048-37.574a17.891 17.891 0 0 1 14.261-17.22c12.353-2.571 27.518-3.116 35.458-3.212a8.246 8.246 0 0 1 8.275 8.042c.242 12.964.167 36.605-3.05 49.289-4.775 18.825 2.691 31.618 2.767 31.745l.45.753-60.353 4.47z" fill="#0B5BF4"/><path d="M107.334 239.773a10.036 10.036 0 0 0 5.382-6.557 10.035 10.035 0 0 0-1.572-8.335l22.916-98.818h-17.325l-20.224 96.87a10.08 10.08 0 0 0 10.823 16.84zm139.337-97.271-38.242-36.176-10.336 14.47 25.84 22.74-33.888 26.91c-.244-.017-.488-.037-.737-.037a10.853 10.853 0 1 0 10.745 12.296l.107.107 46.511-40.31z" fill="#FFB8B8"/><path d="M142.24 98.037s-23.88-3.917-26.046 14.491c-2.166 18.408-3.248 18.408-3.248 18.408s17.324-3.249 21.656 1.082c4.332 4.331 7.639-33.98 7.639-33.98l-.001-.001zm35.674-2.834s19.49-3.248 28.152 5.414c8.662 8.662 12.994 10.828 12.994 10.828s-19.49 10.828-11.91 20.573c0 0-20.574-9.745-23.822-6.496-3.248 3.249-5.414-30.319-5.414-30.319z" fill="#0B5BF4"/><path d="M160.819 32.338c-6.148-4.91-7.764-14.386-4.197-21.399C160.189 3.926 168.254-.299 176.116.017c7.862.316 15.27 4.83 19.824 11.244 6.398 9.013 7.74 21.54 16.248 28.594 7.684 6.373 18.691 6.19 28.661 5.684 3.361-.17 6.83-.37 9.846-1.863 3.016-1.493 5.48-4.642 5.09-7.984 2.505 3.964 1.052 9.524-2.308 12.795-3.36 3.271-8.145 4.642-12.803 5.188a47.573 47.573 0 0 1-43.151-18.933c-3.47-4.786-6.146-10.358-10.906-13.862-4.76-3.504-12.697-3.747-15.62 1.39-1.444 2.541-1.303 5.728-2.632 8.332-1.329 2.604-5.645 4.008-6.924 1.38" fill="#2F2E41"/><path d="M159.879 84.556c16.568 0 30-13.431 30-30 0-16.569-13.432-30-30-30-16.569 0-30 13.431-30 30 0 16.569 13.431 30 30 30z" fill="#2F2E41"/><path d="M159.698 86.904c13.565 0 24.561-10.996 24.561-24.561s-10.996-24.561-24.561-24.561-24.561 10.996-24.561 24.561 10.996 24.561 24.561 24.561z" fill="#FFB8B8"/><path d="M137.303 44.304c3.338.73 2.245 6.33 4.883 8.502 2.38 1.96 5.806-.056 8.8-.785 3.782-.92 7.739.428 11.23 2.148 3.491 1.72 6.856 3.854 10.664 4.655 3.808.8 8.322-.101 10.457-3.355 2.041-3.11 1.29-7.306-.307-10.667a24.77 24.77 0 0 0-44.442-.616" fill="#2F2E41"/><path d="M716 406.998a1 1 0 0 1-1 1H1a.998.998 0 0 1-1-1 1 1 0 0 1 1-1h714a1 1 0 0 1 1 1z" fill="#3F3D56"/></g><defs><clipPath id="a"><path fill="#fff" d="M0 0h777.001v407.998H0z"/></clipPath></defs></svg>