<svg width="48" height="17" fill="none" xmlns="http://www.w3.org/2000/svg"><mask id="a" style="mask-type:luminance" maskUnits="userSpaceOnUse" x="32" y="1" width="16" height="16"><path d="M32 1h16v16H32V1z" fill="#fff"/></mask><g mask="url(#a)"><path d="M40 15.999c4.666 0 6.999-3.134 6.999-7 0-3.865-2.333-6.999-7-6.999C35.333 2 33 5.134 33 9c0 3.865 2.332 6.999 7 6.999z" fill="url(#b)"/><path d="M40 15.999c4.666 0 6.999-3.134 6.999-7 0-3.865-2.333-6.999-7-6.999C35.333 2 33 5.134 33 9c0 3.865 2.332 6.999 7 6.999z" fill="url(#c)" fill-opacity=".6"/><path d="M38 14c.166-.334.8-1 2-1s1.834.666 2 1" stroke="url(#d)" stroke-linecap="round"/><path d="M36.5 13a2.5 2.5 0 1 0 0-5 2.5 2.5 0 0 0 0 5z" fill="url(#e)"/><path d="M41.75 13a2.25 2.25 0 1 0 0-4.5 2.25 2.25 0 0 0 0 4.5z" fill="url(#f)"/><path d="M37.25 12a2.249 2.249 0 1 0 0-4.498 2.249 2.249 0 0 0 0 4.498zm5.5 0a2.249 2.249 0 1 0 0-4.498 2.249 2.249 0 0 0 0 4.498z" fill="#fff"/><path d="M38 11a1 1 0 1 0 0-2 1 1 0 0 0 0 2z" fill="url(#g)"/><path d="M42 11a1 1 0 1 0 0-2 1 1 0 0 0 0 2z" fill="url(#h)"/><path d="M37.125 6.625s.375 1.5 2 1.5" stroke="url(#i)" stroke-width=".75" stroke-linecap="round" stroke-linejoin="round"/><path d="M42.875 6.625s-.375 1.5-2 1.5" stroke="url(#j)" stroke-width=".75" stroke-linecap="round" stroke-linejoin="round"/><path d="M36 4s-1.196-.366-1.77-1.386c-.14-.255-.3 0-.3 0S32.924 4.5 34 6.5c.13.345.755.5 1.25.5.895 0 1.554-.766 1.554-1.656C36.81 4.734 36.54 4.18 36 4z" fill="url(#k)"/><path d="M44.003 4s1.196-.366 1.771-1.386c.14-.255.3 0 .3 0S47.078 4.5 46.003 6.5c-.13.345-.755.5-1.25.5-.895 0-1.554-.766-1.554-1.656-.005-.61.264-1.164.804-1.344z" fill="url(#l)"/><path d="M44.003 4s1.196-.366 1.771-1.386c.14-.255.3 0 .3 0S47.078 4.5 46.003 6.5c-.13.345-.755.5-1.25.5-.895 0-1.554-.766-1.554-1.656-.005-.61.264-1.164.804-1.344z" fill="url(#m)"/></g><path d="M32 15.999c4.666 0 6.999-3.134 6.999-7 0-3.865-2.333-6.999-7-6.999C27.333 2 25 5.134 25 9c0 3.865 2.332 6.999 7 6.999z" fill="url(#n)"/><path d="M32 15.999c4.666 0 6.999-3.134 6.999-7 0-3.865-2.333-6.999-7-6.999C27.333 2 25 5.134 25 9c0 3.865 2.332 6.999 7 6.999z" fill="url(#o)"/><path d="M32 15.999c4.666 0 6.999-3.134 6.999-7 0-3.865-2.333-6.999-7-6.999C27.333 2 25 5.134 25 9c0 3.865 2.332 6.999 7 6.999z" fill="url(#p)"/><path d="M32 15.999c4.666 0 6.999-3.134 6.999-7 0-3.865-2.333-6.999-7-6.999C27.333 2 25 5.134 25 9c0 3.865 2.332 6.999 7 6.999z" fill="url(#q)" fill-opacity=".6"/><path d="M32 15.999c4.666 0 6.999-3.134 6.999-7 0-3.865-2.333-6.999-7-6.999C27.333 2 25 5.134 25 9c0 3.865 2.332 6.999 7 6.999z" fill="url(#r)"/><path d="M32 15.999c4.666 0 6.999-3.134 6.999-7 0-3.865-2.333-6.999-7-6.999C27.333 2 25 5.134 25 9c0 3.865 2.332 6.999 7 6.999z" fill="url(#s)"/><path d="M32 15.999c4.666 0 6.999-3.134 6.999-7 0-3.865-2.333-6.999-7-6.999C27.333 2 25 5.134 25 9c0 3.865 2.332 6.999 7 6.999z" fill="url(#t)"/><path d="M32 15.999c4.666 0 6.999-3.134 6.999-7 0-3.865-2.333-6.999-7-6.999C27.333 2 25 5.134 25 9c0 3.865 2.332 6.999 7 6.999z" fill="url(#u)"/><path d="M32 15.999c4.666 0 6.999-3.134 6.999-7 0-3.865-2.333-6.999-7-6.999C27.333 2 25 5.134 25 9c0 3.865 2.332 6.999 7 6.999z" fill="url(#v)"/><path d="M32 15.999c4.666 0 6.999-3.134 6.999-7 0-3.865-2.333-6.999-7-6.999C27.333 2 25 5.134 25 9c0 3.865 2.332 6.999 7 6.999z" fill="url(#w)"/><path d="M32 15.999c4.666 0 6.999-3.134 6.999-7 0-3.865-2.333-6.999-7-6.999C27.333 2 25 5.134 25 9c0 3.865 2.332 6.999 7 6.999z" fill="url(#x)"/><path d="M32 15.999c4.666 0 6.999-3.134 6.999-7 0-3.865-2.333-6.999-7-6.999C27.333 2 25 5.134 25 9c0 3.865 2.332 6.999 7 6.999z" fill="url(#y)"/><path d="M32 15.999c4.666 0 6.999-3.134 6.999-7 0-3.865-2.333-6.999-7-6.999C27.333 2 25 5.134 25 9c0 3.865 2.332 6.999 7 6.999z" fill="url(#z)"/><path d="M29.21 10.456a2.103 2.103 0 1 0 0-4.205 2.103 2.103 0 0 0 0 4.205zm5.574.039a2.124 2.124 0 0 0 .812-4.083 2.122 2.122 0 1 0-.812 4.083z" fill="#fff"/><path d="M29.5 9.844a1.5 1.5 0 1 0 0-3 1.5 1.5 0 0 0 0 3z" fill="url(#A)"/><path d="M34.5 9.844a1.5 1.5 0 1 0 0-3 1.5 1.5 0 0 0 0 3z" fill="url(#B)"/><path fill-rule="evenodd" clip-rule="evenodd" d="M30.128 12.165a.5.5 0 0 1 .706-.036c.259.232.689.377 1.166.377s.907-.145 1.166-.377a.5.5 0 0 1 .669.742c-.492.443-1.187.636-1.835.636-.648 0-1.343-.193-1.834-.636a.5.5 0 0 1-.038-.706z" fill="url(#C)"/><path d="M34.5 12.428c0-.788.672-1.428 1.5-1.428s1.5.64 1.5 1.428v2.143C37.5 15.36 36.828 16 36 16s-1.5-.64-1.5-1.428v-2.143z" fill="url(#D)"/><path d="M24 15.999c4.666 0 6.999-3.134 6.999-7 0-3.865-2.332-6.999-7-6.999C19.333 2 17 5.134 17 9c0 3.865 2.332 6.999 7 6.999z" fill="url(#E)"/><path d="M24 15.999c4.666 0 6.999-3.134 6.999-7 0-3.865-2.332-6.999-7-6.999C19.333 2 17 5.134 17 9c0 3.865 2.332 6.999 7 6.999z" fill="url(#F)"/><path d="M24 15.999c4.666 0 6.999-3.134 6.999-7 0-3.865-2.332-6.999-7-6.999C19.333 2 17 5.134 17 9c0 3.865 2.332 6.999 7 6.999z" fill="url(#G)"/><path d="M24 15.999c4.666 0 6.999-3.134 6.999-7 0-3.865-2.332-6.999-7-6.999C19.333 2 17 5.134 17 9c0 3.865 2.332 6.999 7 6.999z" fill="url(#H)" fill-opacity=".6"/><path d="M24 15.999c4.666 0 6.999-3.134 6.999-7 0-3.865-2.332-6.999-7-6.999C19.333 2 17 5.134 17 9c0 3.865 2.332 6.999 7 6.999z" fill="url(#I)"/><path d="M24 15.999c4.666 0 6.999-3.134 6.999-7 0-3.865-2.332-6.999-7-6.999C19.333 2 17 5.134 17 9c0 3.865 2.332 6.999 7 6.999z" fill="url(#J)"/><path d="M24 15.999c4.666 0 6.999-3.134 6.999-7 0-3.865-2.332-6.999-7-6.999C19.333 2 17 5.134 17 9c0 3.865 2.332 6.999 7 6.999z" fill="url(#K)"/><path d="M24 15.999c4.666 0 6.999-3.134 6.999-7 0-3.865-2.332-6.999-7-6.999C19.333 2 17 5.134 17 9c0 3.865 2.332 6.999 7 6.999z" fill="url(#L)"/><path d="M24 13.5c-4.5 0-4.5-4.5-4.5-4.5h9s0 4.5-4.5 4.5z" fill="url(#M)"/><path d="M20 9.25V9h8v.25a.5.5 0 0 1-.5.5h-7a.5.5 0 0 1-.5-.5z" fill="url(#N)"/><path d="M21.25 8.75s-1.5-.25-2.525-1.433c-1.045-1.206-.07-2.934 1.775-2.067.788-1.286 2.745-.81 2.485.75-.25 1.5-1.735 2.75-1.735 2.75z" fill="url(#O)"/><path d="M25.759 8.75s1.5-.25 2.524-1.433c1.045-1.206.07-2.934-1.774-2.067-.789-1.286-2.745-.81-2.486.75.25 1.5 1.736 2.75 1.736 2.75z" fill="url(#P)"/><path d="M21.297 8.135c-.524-.165-1.405-.539-2.079-1.318-1.045-1.206-.07-2.934 1.775-2.067.789-1.286 2.745-.81 2.485.75-.175 1.045-.948 1.968-1.401 2.433a.764.764 0 0 1-.78.202z" fill="url(#Q)"/><path d="M26.705 8.135c.523-.165 1.404-.539 2.079-1.318 1.044-1.206.07-2.934-1.775-2.067-.789-1.286-2.745-.81-2.486.75.175 1.045.948 1.968 1.401 2.433.206.21.502.29.781.202z" fill="url(#R)"/><path d="M21.777 6.716c.293-.293.055-1.005-.53-1.591-.586-.586-1.298-.823-1.591-.53-.293.293-.056 1.005.53 1.59.586.586 1.298.824 1.591.531z" fill="url(#S)"/><path d="M26.796 7.061c.538-.124.824-.879.638-1.686-.186-.807-.773-1.361-1.311-1.238-.538.124-.824.88-.638 1.687.186.807.773 1.36 1.311 1.237z" fill="url(#T)"/><path d="M22.009 5.342a.75.75 0 1 0 1.06-1.06.75.75 0 0 0-1.06 1.06z" fill="url(#U)"/><path d="M27.478 6.02c.196.194.67.036 1.061-.354.39-.391.549-.866.354-1.061-.196-.195-.67-.037-1.061.353-.39.391-.549.866-.354 1.061z" fill="url(#V)"/><path d="M14.277 5.468c.769-1.199 1.224-2.306 1.461-3.089.091-.3.475-.422.703-.207 3.437 3.24 4.56 5.715 4.784 8.574.163 2.765-1.196 5.226-4.844 5.226-3.425 0-5.954-2.39-5.61-6.18a10.655 10.655 0 0 1 1.79-5.016c.219-.32.675-.324.928-.03l.63.733a.1.1 0 0 0 .159-.011z" fill="url(#W)"/><path d="M14.277 5.468c.769-1.199 1.224-2.306 1.461-3.089.091-.3.475-.422.703-.207 3.437 3.24 4.56 5.715 4.784 8.574.163 2.765-1.196 5.226-4.844 5.226-3.425 0-5.954-2.39-5.61-6.18a10.655 10.655 0 0 1 1.79-5.016c.219-.32.675-.324.928-.03l.63.733a.1.1 0 0 0 .159-.011z" fill="url(#X)"/><path d="M14.277 5.468c.769-1.199 1.224-2.306 1.461-3.089.091-.3.475-.422.703-.207 3.437 3.24 4.56 5.715 4.784 8.574.163 2.765-1.196 5.226-4.844 5.226-3.425 0-5.954-2.39-5.61-6.18a10.655 10.655 0 0 1 1.79-5.016c.219-.32.675-.324.928-.03l.63.733a.1.1 0 0 0 .159-.011z" fill="url(#Y)"/><path d="M14.277 5.468c.769-1.199 1.224-2.306 1.461-3.089.091-.3.475-.422.703-.207 3.437 3.24 4.56 5.715 4.784 8.574.163 2.765-1.196 5.226-4.844 5.226-3.425 0-5.954-2.39-5.61-6.18a10.655 10.655 0 0 1 1.79-5.016c.219-.32.675-.324.928-.03l.63.733a.1.1 0 0 0 .159-.011z" fill="url(#Z)"/><path d="M14.277 5.468c.769-1.199 1.224-2.306 1.461-3.089.091-.3.475-.422.703-.207 3.437 3.24 4.56 5.715 4.784 8.574.163 2.765-1.196 5.226-4.844 5.226-3.425 0-5.954-2.39-5.61-6.18a10.655 10.655 0 0 1 1.79-5.016c.219-.32.675-.324.928-.03l.63.733a.1.1 0 0 0 .159-.011z" fill="url(#aa)"/><path d="M14.277 5.468c.769-1.199 1.224-2.306 1.461-3.089.091-.3.475-.422.703-.207 3.437 3.24 4.56 5.715 4.784 8.574.163 2.765-1.196 5.226-4.844 5.226-3.425 0-5.954-2.39-5.61-6.18a10.655 10.655 0 0 1 1.79-5.016c.219-.32.675-.324.928-.03l.63.733a.1.1 0 0 0 .159-.011z" fill="url(#ab)"/><path d="M14.277 5.468c.769-1.199 1.224-2.306 1.461-3.089.091-.3.475-.422.703-.207 3.437 3.24 4.56 5.715 4.784 8.574.163 2.765-1.196 5.226-4.844 5.226-3.425 0-5.954-2.39-5.61-6.18a10.655 10.655 0 0 1 1.79-5.016c.219-.32.675-.324.928-.03l.63.733a.1.1 0 0 0 .159-.011z" fill="url(#ac)"/><path d="M14.277 5.468c.769-1.199 1.224-2.306 1.461-3.089.091-.3.475-.422.703-.207 3.437 3.24 4.56 5.715 4.784 8.574.163 2.765-1.196 5.226-4.844 5.226-3.425 0-5.954-2.39-5.61-6.18a10.655 10.655 0 0 1 1.79-5.016c.219-.32.675-.324.928-.03l.63.733a.1.1 0 0 0 .159-.011z" fill="url(#ad)"/><g filter="url(#ae)"><path d="M13.089 10.938c.651-1.55 1.987-3.264 2.89-4.194a.668.668 0 0 1 .936-.02c1.73 1.595 2.252 3.037 2.694 4.714.46 1.746 0 4.56-3.461 4.56-2.98 0-4.013-2.79-3.059-5.06z" fill="url(#af)"/><path d="M13.089 10.938c.651-1.55 1.987-3.264 2.89-4.194a.668.668 0 0 1 .936-.02c1.73 1.595 2.252 3.037 2.694 4.714.46 1.746 0 4.56-3.461 4.56-2.98 0-4.013-2.79-3.059-5.06z" fill="url(#ag)"/><path d="M13.089 10.938c.651-1.55 1.987-3.264 2.89-4.194a.668.668 0 0 1 .936-.02c1.73 1.595 2.252 3.037 2.694 4.714.46 1.746 0 4.56-3.461 4.56-2.98 0-4.013-2.79-3.059-5.06z" fill="url(#ah)"/></g><path d="M13.089 10.938c.651-1.55 1.987-3.264 2.89-4.194a.668.668 0 0 1 .936-.02c1.73 1.595 2.252 3.037 2.694 4.714.46 1.746 0 4.56-3.461 4.56-2.98 0-4.013-2.79-3.059-5.06z" fill="url(#ai)"/><path d="M13.089 10.938c.651-1.55 1.987-3.264 2.89-4.194a.668.668 0 0 1 .936-.02c1.73 1.595 2.252 3.037 2.694 4.714.46 1.746 0 4.56-3.461 4.56-2.98 0-4.013-2.79-3.059-5.06z" fill="url(#aj)"/><g filter="url(#ak)"><path d="M13.907 6.77c1.158-1.695 1.835-3.53 2.041-3.981-.301 2.317-1.18 4.014-2.834 6.199-1.323 1.748-1.562 3.244-1.55 3.608-.414-2.78.896-3.708 2.343-5.826z" fill="url(#al)"/></g><g filter="url(#am)"><path d="M12.907 4.937c-.65.807-1.943 3.045-1.91 5.542.64-2.561 2.137-3.368 1.91-5.542z" fill="url(#an)"/></g><g filter="url(#ao)"><path d="M6.134 3.579a1.644 1.644 0 1 1 3.288 0V5.47c0 .161-.011.322-.036.483-.01.059-.017.118-.023.176-.018.185.004.427.13.59l-.302.29a4.669 4.669 0 0 1 2.541 4.163c0 .48-.072.956-.216 1.413l-.498 3.253H6.966v-.001c-2.502-.054-4.508-1.685-4.508-4.665 0-1.751.838-3.161 2.107-3.956l-.003-.003c.086-.06.188-.121.297-.187h.001c.36-.216.8-.48 1.032-.91.201-.374.24-.98.24-1.262h.001V3.579z" fill="url(#ap)"/></g><path d="M6.134 3.579a1.644 1.644 0 1 1 3.288 0V5.47c0 .161-.011.322-.036.483-.01.059-.017.118-.023.176-.018.185.004.427.13.59l-.302.29a4.669 4.669 0 0 1 2.541 4.163c0 .48-.072.956-.216 1.413l-.498 3.253H6.966v-.001c-2.502-.054-4.508-1.685-4.508-4.665 0-1.751.838-3.161 2.107-3.956l-.003-.003c.086-.06.188-.121.297-.187h.001c.36-.216.8-.48 1.032-.91.201-.374.24-.98.24-1.262h.001V3.579z" fill="url(#aq)"/><path d="M6.134 3.579a1.644 1.644 0 1 1 3.288 0V5.47c0 .161-.011.322-.036.483-.01.059-.017.118-.023.176-.018.185.004.427.13.59l-.302.29a4.669 4.669 0 0 1 2.541 4.163c0 .48-.072.956-.216 1.413l-.498 3.253H6.966v-.001c-2.502-.054-4.508-1.685-4.508-4.665 0-1.751.838-3.161 2.107-3.956l-.003-.003c.086-.06.188-.121.297-.187h.001c.36-.216.8-.48 1.032-.91.201-.374.24-.98.24-1.262h.001V3.579z" fill="url(#ar)"/><path d="M6.134 3.579a1.644 1.644 0 1 1 3.288 0V5.47c0 .161-.011.322-.036.483-.01.059-.017.118-.023.176-.018.185.004.427.13.59l-.302.29a4.669 4.669 0 0 1 2.541 4.163c0 .48-.072.956-.216 1.413l-.498 3.253H6.966v-.001c-2.502-.054-4.508-1.685-4.508-4.665 0-1.751.838-3.161 2.107-3.956l-.003-.003c.086-.06.188-.121.297-.187h.001c.36-.216.8-.48 1.032-.91.201-.374.24-.98.24-1.262h.001V3.579z" fill="url(#as)"/><path d="M6.134 3.579a1.644 1.644 0 1 1 3.288 0V5.47c0 .161-.011.322-.036.483-.01.059-.017.118-.023.176-.018.185.004.427.13.59l-.302.29a4.669 4.669 0 0 1 2.541 4.163c0 .48-.072.956-.216 1.413l-.498 3.253H6.966v-.001c-2.502-.054-4.508-1.685-4.508-4.665 0-1.751.838-3.161 2.107-3.956l-.003-.003c.086-.06.188-.121.297-.187h.001c.36-.216.8-.48 1.032-.91.201-.374.24-.98.24-1.262h.001V3.579z" fill="url(#at)"/><g filter="url(#au)"><path d="M11.84 8.354a1.276 1.276 0 0 0-1.277-1.276H9.151a1.276 1.276 0 0 0-.82 2.255 1.279 1.279 0 0 0-.057 1.996 1.272 1.272 0 0 0-.451.973v.063c0 .35.14.666.368.897a1.241 1.241 0 0 0 .873 2.124h1.402a1.242 1.242 0 0 0 1.075-1.864 1.277 1.277 0 0 0 .736-1.157v-.063c0-.394-.179-.747-.461-.982a1.28 1.28 0 0 0-.293-2.124 1.27 1.27 0 0 0 .316-.842z" fill="url(#av)"/></g><g filter="url(#aw)"><path d="M11.524 9.275a1.455 1.455 0 1 0 0-2.91H9.912a1.455 1.455 0 0 0 0 2.91h1.611z" fill="url(#ax)"/><path d="M11.524 9.275a1.455 1.455 0 1 0 0-2.91H9.912a1.455 1.455 0 0 0 0 2.91h1.611z" fill="url(#ay)"/></g><g filter="url(#az)"><path d="M11.412 15.84a1.416 1.416 0 0 0 0-2.832H9.814a1.416 1.416 0 1 0 0 2.832h1.598z" fill="url(#aA)"/><path d="M11.412 15.84a1.416 1.416 0 0 0 0-2.832H9.814a1.416 1.416 0 1 0 0 2.832h1.598z" fill="url(#aB)"/><path d="M11.412 15.84a1.416 1.416 0 0 0 0-2.832H9.814a1.416 1.416 0 1 0 0 2.832h1.598z" fill="url(#aC)"/></g><path d="M11.412 15.84a1.416 1.416 0 0 0 0-2.832H9.814a1.416 1.416 0 1 0 0 2.832h1.598z" fill="url(#aD)"/><path d="M11.412 15.84a1.416 1.416 0 0 0 0-2.832H9.814a1.416 1.416 0 1 0 0 2.832h1.598z" fill="url(#aE)"/><g filter="url(#aF)"><path d="M12.127 13.85H10.18a.369.369 0 0 0 0 .738h1.947a.369.369 0 1 0 0-.738z" fill="url(#aG)"/></g><path d="M11.986 13.85a1.49 1.49 0 1 0 0-2.983H9.89a1.491 1.491 0 0 0 0 2.982h2.098z" fill="#C4C4C4" fill-opacity=".66"/><g filter="url(#aH)"><path d="M13.477 12.394v-.072c0-.803-.65-1.455-1.454-1.455h-2.17c-.804 0-1.455.652-1.455 1.455v.072c0 .804.651 1.455 1.455 1.455h2.17c.803 0 1.454-.651 1.454-1.455z" fill="url(#aI)"/><path d="M13.477 12.394v-.072c0-.803-.65-1.455-1.454-1.455h-2.17c-.804 0-1.455.652-1.455 1.455v.072c0 .804.651 1.455 1.455 1.455h2.17c.803 0 1.454-.651 1.454-1.455z" fill="url(#aJ)"/><path d="M13.477 12.394v-.072c0-.803-.65-1.455-1.454-1.455h-2.17c-.804 0-1.455.652-1.455 1.455v.072c0 .804.651 1.455 1.455 1.455h2.17c.803 0 1.454-.651 1.454-1.455z" fill="url(#aK)"/></g><g filter="url(#aL)"><path d="M12.61 11.915H9.985a.369.369 0 1 0 0 .738h2.625a.37.37 0 0 0 0-.738z" fill="url(#aM)"/></g><g filter="url(#aN)"><path d="M13.455 10.104v-.007c0-.804-.651-1.455-1.455-1.455H9.853c-.803 0-1.455.651-1.455 1.455v.007c0 .803.652 1.455 1.455 1.455H12c.804 0 1.455-.652 1.455-1.455z" fill="url(#aO)"/><path d="M13.455 10.104v-.007c0-.804-.651-1.455-1.455-1.455H9.853c-.803 0-1.455.651-1.455 1.455v.007c0 .803.652 1.455 1.455 1.455H12c.804 0 1.455-.652 1.455-1.455z" fill="url(#aP)"/></g><path d="M7.778 1.935A1.644 1.644 0 0 0 6.134 3.58v1.277h-.001c0 .28-.039.887-.24 1.26-.232.432-.672.696-1.032.911-.11.066-.212.127-.298.187.497.399 1.516 1.195 1.54 1.176.58-.313 1.16-.623 1.743-.93l-.024-.345a1.645 1.645 0 0 0 1.6-1.643V3.579a1.645 1.645 0 0 0-1.644-1.644z" fill="url(#aQ)"/><path d="M7.778 1.935A1.644 1.644 0 0 0 6.134 3.58v1.277h-.001c0 .28-.039.887-.24 1.26-.232.432-.672.696-1.032.911-.11.066-.212.127-.298.187.497.399 1.516 1.195 1.54 1.176.58-.313 1.16-.623 1.743-.93l-.024-.345a1.645 1.645 0 0 0 1.6-1.643V3.579a1.645 1.645 0 0 0-1.644-1.644z" fill="url(#aR)"/><path d="M6.738 2.305a1.641 1.641 0 0 0-.604 1.274v.096h.743a3.174 3.174 0 0 0-.043-.574l-.008-.046c-.041-.224-.088-.48-.088-.75z" fill="#FFBF71"/><path d="M6.738 2.305a1.641 1.641 0 0 0-.604 1.274v.096h.743a3.174 3.174 0 0 0-.043-.574l-.008-.046c-.041-.224-.088-.48-.088-.75z" fill="url(#aS)"/><g filter="url(#aT)"><path d="M11.867 6.762h-1.81a.629.629 0 1 0 0 1.258h1.81a.629.629 0 1 0 0-1.258z" fill="url(#aU)"/></g><g filter="url(#aV)"><path d="M12.35 9h-2.328a.629.629 0 1 0 0 1.258h2.328a.629.629 0 1 0 0-1.258z" fill="url(#aW)"/></g><g filter="url(#aX)"><path d="M9.007 3.272a.716.716 0 1 0-1.432 0v2.566a.716.716 0 1 0 1.432 0V3.272z" fill="url(#aY)"/></g><defs><radialGradient id="F" cx="0" cy="0" r="1" gradientUnits="userSpaceOnUse" gradientTransform="rotate(131.878 13.147 9.169) scale(19.4743)"><stop stop-color="#FFF478"/><stop offset=".475" stop-color="#FFB02E"/><stop offset="1" stop-color="#F70A8D"/></radialGradient><radialGradient id="M" cx="0" cy="0" r="1" gradientUnits="userSpaceOnUse" gradientTransform="matrix(0 -5.5 11 0 24 14.5)"><stop stop-color="#F70A8D"/><stop offset="1" stop-color="#89029C"/></radialGradient><radialGradient id="aR" cx="0" cy="0" r="1" gradientUnits="userSpaceOnUse" gradientTransform="matrix(1.16498 1.08626 -1.6437 1.7628 5.34 5.516)"><stop stop-color="#CDA25E"/><stop offset="1" stop-color="#CDA25E" stop-opacity="0"/></radialGradient><radialGradient id="aQ" cx="0" cy="0" r="1" gradientUnits="userSpaceOnUse" gradientTransform="matrix(0 3.18006 -1.18071 0 6.269 3.422)"><stop stop-color="#F3A52A"/><stop offset="1" stop-color="#F3A52A" stop-opacity="0"/></radialGradient><radialGradient id="aP" cx="0" cy="0" r="1" gradientUnits="userSpaceOnUse" gradientTransform="matrix(2.75034 0 0 1.22424 9.444 11.206)"><stop stop-color="#F29545"/><stop offset="1" stop-color="#F29545" stop-opacity="0"/></radialGradient><radialGradient id="aK" cx="0" cy="0" r="1" gradientUnits="userSpaceOnUse" gradientTransform="matrix(4.25188 0 0 1.04824 9.226 11.39)"><stop stop-color="#DA810B"/><stop offset="1" stop-color="#FFB610" stop-opacity="0"/></radialGradient><radialGradient id="aJ" cx="0" cy="0" r="1" gradientUnits="userSpaceOnUse" gradientTransform="matrix(4.19258 0 0 1.46483 9.427 13.85)"><stop stop-color="#F29545"/><stop offset="1" stop-color="#F29545" stop-opacity="0"/></radialGradient><radialGradient id="b" cx="0" cy="0" r="1" gradientUnits="userSpaceOnUse" gradientTransform="matrix(-1 12.50006 -12.50006 -1 42.75 6)"><stop stop-color="#9F70B8"/><stop offset=".514" stop-color="#8543A8"/><stop offset=".714" stop-color="#9344BB"/><stop offset=".889" stop-color="#6B438B"/></radialGradient><radialGradient id="c" cx="0" cy="0" r="1" gradientUnits="userSpaceOnUse" gradientTransform="rotate(135 18.843 12.491) scale(22.6274)"><stop offset=".315" stop-opacity="0"/><stop offset="1"/></radialGradient><radialGradient id="e" cx="0" cy="0" r="1" gradientUnits="userSpaceOnUse" gradientTransform="rotate(135 17.45 12.24) scale(4.87118 2.52116)"><stop stop-color="#392108"/><stop offset="1" stop-color="#C87928" stop-opacity="0"/></radialGradient><radialGradient id="f" cx="0" cy="0" r="1" gradientUnits="userSpaceOnUse" gradientTransform="matrix(-2.875 2.875 -1.62299 -1.62299 43.5 9)"><stop stop-color="#392108"/><stop offset="1" stop-color="#C87928" stop-opacity="0"/></radialGradient><radialGradient id="k" cx="0" cy="0" r="1" gradientUnits="userSpaceOnUse" gradientTransform="rotate(165.379 18.888 3.313) scale(5.94245)"><stop offset=".473" stop-color="#8649AC"/><stop offset=".645" stop-color="#AE7CC7"/><stop offset=".759" stop-color="#9353B3"/><stop offset=".946" stop-color="#733295"/></radialGradient><radialGradient id="l" cx="0" cy="0" r="1" gradientUnits="userSpaceOnUse" gradientTransform="matrix(8.49998 -1.25 1.25 8.49998 39.5 3.5)"><stop offset=".473" stop-color="#613184"/><stop offset=".727" stop-color="#9353B8"/><stop offset=".946" stop-color="#792F9F"/></radialGradient><radialGradient id="m" cx="0" cy="0" r="1" gradientUnits="userSpaceOnUse" gradientTransform="matrix(-1.75 7.49999 -2.57117 -.59994 46 3.25)"><stop stop-color="#B676D6"/><stop offset=".305" stop-color="#B676D6" stop-opacity="0"/></radialGradient><radialGradient id="n" cx="0" cy="0" r="1" gradientUnits="userSpaceOnUse" gradientTransform="rotate(132.839 17.175 10.77) scale(18.7516)"><stop stop-color="#FFF478"/><stop offset=".475" stop-color="#FFB02E"/><stop offset="1" stop-color="#F70A8D"/></radialGradient><radialGradient id="o" cx="0" cy="0" r="1" gradientUnits="userSpaceOnUse" gradientTransform="rotate(131.878 17.147 10.955) scale(19.4743)"><stop stop-color="#FFF478"/><stop offset=".475" stop-color="#FFB02E"/><stop offset="1" stop-color="#F70A8D"/></radialGradient><radialGradient id="p" cx="0" cy="0" r="1" gradientUnits="userSpaceOnUse" gradientTransform="rotate(101.31 13.028 16.742) scale(8.9233 11.429)"><stop offset=".788" stop-color="#F59639" stop-opacity="0"/><stop offset=".973" stop-color="#FF7DCE"/></radialGradient><radialGradient id="q" cx="0" cy="0" r="1" gradientUnits="userSpaceOnUse" gradientTransform="matrix(-14.5 14.5 -14.5 -14.5 33 8)"><stop offset=".315" stop-opacity="0"/><stop offset="1"/></radialGradient><radialGradient id="r" cx="0" cy="0" r="1" gradientUnits="userSpaceOnUse" gradientTransform="rotate(77.692 10.102 24.617) scale(14.0734)"><stop offset=".508" stop-color="#7D6133" stop-opacity="0"/><stop offset="1" stop-color="#715B32"/></radialGradient><radialGradient id="s" cx="0" cy="0" r="1" gradientUnits="userSpaceOnUse" gradientTransform="matrix(3.75 5.49998 -3.98667 2.7182 32.25 9.25)"><stop stop-color="#FFB849"/><stop offset="1" stop-color="#FFB847" stop-opacity="0"/></radialGradient><radialGradient id="t" cx="0" cy="0" r="1" gradientUnits="userSpaceOnUse" gradientTransform="matrix(5.75 1 -1 5.75 34.25 10)"><stop stop-color="#FFA64B"/><stop offset=".9" stop-color="#FFAE46" stop-opacity="0"/></radialGradient><radialGradient id="u" cx="0" cy="0" r="1" gradientUnits="userSpaceOnUse" gradientTransform="rotate(43.971 5.848 44.81) scale(29.5264)"><stop offset=".185" stop-opacity="0"/><stop offset="1" stop-opacity=".4"/></radialGradient><radialGradient id="v" cx="0" cy="0" r="1" gradientUnits="userSpaceOnUse" gradientTransform="rotate(133.727 12.541 10.458) scale(2.64536)"><stop stop-color="#392108"/><stop offset="1" stop-color="#C87928" stop-opacity="0"/></radialGradient><radialGradient id="w" cx="0" cy="0" r="1" gradientUnits="userSpaceOnUse" gradientTransform="rotate(148.696 16.035 9.214) scale(2.45903)"><stop stop-color="#392108"/><stop offset="1" stop-color="#C87928" stop-opacity="0"/></radialGradient><radialGradient id="x" cx="0" cy="0" r="1" gradientUnits="userSpaceOnUse" gradientTransform="rotate(26.381 -9.097 80.808) scale(1.84079)"><stop stop-color="#BE5F45"/><stop offset="1" stop-color="#C87928" stop-opacity="0"/></radialGradient><radialGradient id="y" cx="0" cy="0" r="1" gradientUnits="userSpaceOnUse" gradientTransform="matrix(1.25 -1.75 1.75 1.25 35.25 14)"><stop stop-color="#B3622E"/><stop offset="1" stop-color="#C87928" stop-opacity="0"/></radialGradient><radialGradient id="z" cx="0" cy="0" r="1" gradientUnits="userSpaceOnUse" gradientTransform="matrix(0 1.69817 -.92626 0 35.152 12.74)"><stop stop-color="#B3622E"/><stop offset="1" stop-color="#C87928" stop-opacity="0"/></radialGradient><radialGradient id="C" cx="0" cy="0" r="1" gradientUnits="userSpaceOnUse" gradientTransform="matrix(0 2.07107 -2.80616 0 32 11.623)"><stop offset=".348" stop-color="#4D3027"/><stop offset=".628" stop-color="#57444A"/><stop offset="1" stop-color="#502A56"/></radialGradient><radialGradient id="D" cx="0" cy="0" r="1" gradientUnits="userSpaceOnUse" gradientTransform="matrix(-1.49999 5.2273 -2.1205 -.60848 37 11.227)"><stop stop-color="#5C98FF"/><stop offset=".806" stop-color="#3D5BF1"/><stop offset=".962" stop-color="#6065CA"/></radialGradient><radialGradient id="E" cx="0" cy="0" r="1" gradientUnits="userSpaceOnUse" gradientTransform="rotate(132.839 13.175 9.024) scale(18.7516)"><stop stop-color="#FFF478"/><stop offset=".475" stop-color="#FFB02E"/><stop offset="1" stop-color="#F70A8D"/></radialGradient><radialGradient id="aS" cx="0" cy="0" r="1" gradientUnits="userSpaceOnUse" gradientTransform="rotate(-168.366 3.66 1.256) scale(.81973 1.78924)"><stop offset=".55" stop-color="#CCB28B" stop-opacity="0"/><stop offset="1" stop-color="#CCB28B"/></radialGradient><radialGradient id="G" cx="0" cy="0" r="1" gradientUnits="userSpaceOnUse" gradientTransform="rotate(101.31 9.028 13.462) scale(8.9233 11.429)"><stop offset=".788" stop-color="#F59639" stop-opacity="0"/><stop offset=".973" stop-color="#FF7DCE"/></radialGradient><radialGradient id="H" cx="0" cy="0" r="1" gradientUnits="userSpaceOnUse" gradientTransform="matrix(-14.5 14.5 -14.5 -14.5 25 8)"><stop offset=".315" stop-opacity="0"/><stop offset="1"/></radialGradient><radialGradient id="I" cx="0" cy="0" r="1" gradientUnits="userSpaceOnUse" gradientTransform="rotate(77.692 6.102 19.65) scale(14.0734)"><stop offset=".508" stop-color="#7D6133" stop-opacity="0"/><stop offset="1" stop-color="#715B32"/></radialGradient><radialGradient id="J" cx="0" cy="0" r="1" gradientUnits="userSpaceOnUse" gradientTransform="matrix(3.75 5.49998 -3.98667 2.7182 24.25 9.25)"><stop stop-color="#FFB849"/><stop offset="1" stop-color="#FFB847" stop-opacity="0"/></radialGradient><radialGradient id="K" cx="0" cy="0" r="1" gradientUnits="userSpaceOnUse" gradientTransform="matrix(5.75 1 -1 5.75 26.25 10)"><stop stop-color="#FFA64B"/><stop offset=".9" stop-color="#FFAE46" stop-opacity="0"/></radialGradient><radialGradient id="L" cx="0" cy="0" r="1" gradientUnits="userSpaceOnUse" gradientTransform="rotate(43.971 1.848 34.902) scale(29.5264)"><stop offset=".185" stop-opacity="0"/><stop offset="1" stop-opacity=".4"/></radialGradient><radialGradient id="aE" cx="0" cy="0" r="1" gradientUnits="userSpaceOnUse" gradientTransform="matrix(2.80162 0 0 4.21135 7.811 14.423)"><stop stop-color="#E38811"/><stop offset="1" stop-color="#E38811" stop-opacity="0"/></radialGradient><radialGradient id="O" cx="0" cy="0" r="1" gradientUnits="userSpaceOnUse" gradientTransform="matrix(-5.99999 -2.75005 1.1431 -2.49398 23 8)"><stop stop-color="#CC7521"/><stop offset="1" stop-color="#E6872B" stop-opacity="0"/></radialGradient><radialGradient id="P" cx="0" cy="0" r="1" gradientUnits="userSpaceOnUse" gradientTransform="matrix(-1.24998 2 -2 -1.24998 26 6.5)"><stop stop-color="#EC812A"/><stop offset="1" stop-color="#FBA84C" stop-opacity="0"/></radialGradient><radialGradient id="S" cx="0" cy="0" r="1" gradientUnits="userSpaceOnUse" gradientTransform="matrix(1.09654 1.09654 -.55734 .55734 20.716 5.655)"><stop stop-color="#EC6686"/><stop offset="1" stop-color="#EC6686" stop-opacity="0"/></radialGradient><radialGradient id="T" cx="0" cy="0" r="1" gradientUnits="userSpaceOnUse" gradientTransform="matrix(.5 1.25 -.84712 .33884 26.5 5.5)"><stop stop-color="#EC6686"/><stop offset=".26" stop-color="#EC6686"/><stop offset="1" stop-color="#EC6686" stop-opacity="0"/></radialGradient><radialGradient id="U" cx="0" cy="0" r="1" gradientUnits="userSpaceOnUse" gradientTransform="rotate(135 10.273 7.074) scale(.75)"><stop stop-color="#EC6686"/><stop offset="1" stop-color="#EC6686" stop-opacity="0"/></radialGradient><radialGradient id="V" cx="0" cy="0" r="1" gradientUnits="userSpaceOnUse" gradientTransform="rotate(135 12.993 8.493) scale(1 .5)"><stop stop-color="#EC6686"/><stop offset="1" stop-color="#EC6686" stop-opacity="0"/></radialGradient><radialGradient id="W" cx="0" cy="0" r="1" gradientUnits="userSpaceOnUse" gradientTransform="matrix(-8.54904 -.07849 .11836 -12.89256 20 10.86)"><stop stop-color="#FF953D"/><stop offset="1" stop-color="#FF5141"/></radialGradient><radialGradient id="X" cx="0" cy="0" r="1" gradientUnits="userSpaceOnUse" gradientTransform="rotate(-157.937 7.453 3.128) scale(5.17205 8.92475)"><stop stop-color="#CE5327"/><stop offset="1" stop-color="#CE5327" stop-opacity="0"/></radialGradient><radialGradient id="Z" cx="0" cy="0" r="1" gradientUnits="userSpaceOnUse" gradientTransform="rotate(24.015 -14.027 28.732) scale(1.55233 12.8496)"><stop stop-color="#FFAA7B"/><stop offset="1" stop-color="#FFAA7B" stop-opacity="0"/></radialGradient><radialGradient id="aa" cx="0" cy="0" r="1" gradientUnits="userSpaceOnUse" gradientTransform="matrix(.4215 1.87334 -2.3375 .52593 12.655 4.125)"><stop stop-color="#FF5E47"/><stop offset="1" stop-color="#FF5E47" stop-opacity="0"/></radialGradient><radialGradient id="ab" cx="0" cy="0" r="1" gradientUnits="userSpaceOnUse" gradientTransform="matrix(.18734 5.06524 -4.6884 .1734 16.215 1.683)"><stop stop-color="#FF2F3C"/><stop offset="1" stop-color="#FF2F3C" stop-opacity="0"/></radialGradient><radialGradient id="ac" cx="0" cy="0" r="1" gradientUnits="userSpaceOnUse" gradientTransform="matrix(1.03897 .49175 -.98684 2.08501 14.95 3.4)"><stop stop-color="#FF846C"/><stop offset="1" stop-color="#FF846C" stop-opacity="0"/></radialGradient><radialGradient id="ad" cx="0" cy="0" r="1" gradientUnits="userSpaceOnUse" gradientTransform="matrix(-.4492 1.04687 -.2399 -.10294 14.229 5.105)"><stop stop-color="#FFA682"/><stop offset="1" stop-color="#FFA682" stop-opacity="0"/></radialGradient><radialGradient id="af" cx="0" cy="0" r="1" gradientUnits="userSpaceOnUse" gradientTransform="rotate(-168.558 9.962 5.662) scale(5.01455 6.24455)"><stop stop-color="#FFDA2F"/><stop offset="1" stop-color="#FF8E41"/></radialGradient><radialGradient id="ag" cx="0" cy="0" r="1" gradientUnits="userSpaceOnUse" gradientTransform="matrix(2.52904 6.60352 -5.73756 2.19739 14.2 5.296)"><stop stop-color="#FD5639"/><stop offset="1" stop-color="#FE5533" stop-opacity="0"/></radialGradient><radialGradient id="ah" cx="0" cy="0" r="1" gradientUnits="userSpaceOnUse" gradientTransform="matrix(-4.87458 .49179 -1.20412 -11.93511 17.62 11.315)"><stop offset=".628" stop-color="#D7812D" stop-opacity="0"/><stop offset="1" stop-color="#D7812D"/></radialGradient><radialGradient id="aj" cx="0" cy="0" r="1" gradientUnits="userSpaceOnUse" gradientTransform="rotate(143.063 8.01 8.456) scale(8.0273 5.8087)"><stop offset=".772" stop-color="#F18A52" stop-opacity="0"/><stop offset="1" stop-color="#F18A52"/></radialGradient><radialGradient id="aq" cx="0" cy="0" r="1" gradientUnits="userSpaceOnUse" gradientTransform="rotate(141.116 4.506 3.515) scale(2.50782 7.4017)"><stop stop-color="#FFE34C"/><stop offset="1" stop-color="#FFE34C" stop-opacity="0"/></radialGradient><radialGradient id="ar" cx="0" cy="0" r="1" gradientUnits="userSpaceOnUse" gradientTransform="rotate(125.191 .523 5.91) scale(3.71511 2.69128)"><stop stop-color="#FFCA2E"/><stop offset="1" stop-color="#FFCA2E" stop-opacity="0"/></radialGradient><radialGradient id="as" cx="0" cy="0" r="1" gradientUnits="userSpaceOnUse" gradientTransform="rotate(146.743 3.34 6.479) scale(8.09535 14.1671)"><stop offset=".681" stop-color="#E18E3F" stop-opacity="0"/><stop offset="1" stop-color="#E18E3F"/></radialGradient><radialGradient id="ay" cx="0" cy="0" r="1" gradientUnits="userSpaceOnUse" gradientTransform="rotate(-142.633 6.136 3) scale(1.16055 .77684)"><stop stop-color="#D98320"/><stop offset="1" stop-color="#D98320" stop-opacity="0"/></radialGradient><radialGradient id="aB" cx="0" cy="0" r="1" gradientUnits="userSpaceOnUse" gradientTransform="matrix(3.65674 0 0 1.39111 9.295 15.84)"><stop stop-color="#F29545"/><stop offset="1" stop-color="#F29545" stop-opacity="0"/></radialGradient><radialGradient id="aC" cx="0" cy="0" r="1" gradientUnits="userSpaceOnUse" gradientTransform="matrix(3.70845 0 0 .99548 9.12 13.504)"><stop stop-color="#DA810B"/><stop offset="1" stop-color="#FFB610" stop-opacity="0"/></radialGradient><linearGradient id="aW" x1="12.792" y1="9.345" x2="8.927" y2="9.345" gradientUnits="userSpaceOnUse"><stop stop-color="#FFF166"/><stop offset="1" stop-color="#FFF166" stop-opacity="0"/></linearGradient><linearGradient id="g" x1="42.307" y1="9" x2="41.964" y2="11.015" gradientUnits="userSpaceOnUse"><stop stop-color="#553B3E"/><stop offset="1" stop-color="#3D2432"/></linearGradient><linearGradient id="Y" x1="17.168" y1="15.972" x2="17.168" y2="13.423" gradientUnits="userSpaceOnUse"><stop stop-color="#FF7583"/><stop offset="1" stop-color="#FF7583" stop-opacity="0"/></linearGradient><linearGradient id="h" x1="42.307" y1="9" x2="41.964" y2="11.015" gradientUnits="userSpaceOnUse"><stop stop-color="#553B3E"/><stop offset="1" stop-color="#3D2432"/></linearGradient><linearGradient id="i" x1="37.75" y1="6.5" x2="37.75" y2="7.25" gradientUnits="userSpaceOnUse"><stop offset=".03" stop-color="#524049"/><stop offset="1" stop-color="#4A2C42"/></linearGradient><linearGradient id="j" x1="42.25" y1="6.5" x2="42.25" y2="7.25" gradientUnits="userSpaceOnUse"><stop offset=".03" stop-color="#524049"/><stop offset="1" stop-color="#4A2C42"/></linearGradient><linearGradient id="aU" x1="12.336" y1="7.107" x2="9.029" y2="7.107" gradientUnits="userSpaceOnUse"><stop stop-color="#FFF166"/><stop offset="1" stop-color="#FFF166" stop-opacity="0"/></linearGradient><linearGradient id="aI" x1="13.033" y1="12.358" x2="8.398" y2="12.358" gradientUnits="userSpaceOnUse"><stop stop-color="#FFDB44"/><stop offset="1" stop-color="#F9A928"/></linearGradient><linearGradient id="aG" x1="12.357" y1="14.052" x2="9.462" y2="14.052" gradientUnits="userSpaceOnUse"><stop stop-color="#FFF166"/><stop offset="1" stop-color="#FFF166" stop-opacity="0"/></linearGradient><linearGradient id="N" x1="24" y1="9" x2="24" y2="9.75" gradientUnits="userSpaceOnUse"><stop stop-color="#ECCDFF"/><stop offset="1" stop-color="#fff"/></linearGradient><linearGradient id="aY" x1="8.933" y1="3.652" x2="7.389" y2="3.652" gradientUnits="userSpaceOnUse"><stop stop-color="#FFF166"/><stop offset="1" stop-color="#FFF166" stop-opacity="0"/></linearGradient><linearGradient id="ai" x1="16.252" y1="6.306" x2="16.252" y2="8.13" gradientUnits="userSpaceOnUse"><stop stop-color="#F95131"/><stop offset="1" stop-color="#F95131" stop-opacity="0"/></linearGradient><linearGradient id="A" x1="32.25" y1="6.344" x2="31.75" y2="9.844" gradientUnits="userSpaceOnUse"><stop stop-color="#553B3E"/><stop offset="1" stop-color="#3D2432"/></linearGradient><linearGradient id="al" x1="15.498" y1="3.128" x2="11.828" y2="12.366" gradientUnits="userSpaceOnUse"><stop stop-color="#FF7558"/><stop offset="1" stop-color="#F38758"/></linearGradient><linearGradient id="an" x1="12.77" y1="5.072" x2="10.791" y2="10.739" gradientUnits="userSpaceOnUse"><stop stop-color="#FF815B"/><stop offset="1" stop-color="#FF9C6D"/></linearGradient><linearGradient id="ap" x1="9.627" y1="4.319" x2="4.596" y2="14.913" gradientUnits="userSpaceOnUse"><stop stop-color="#FFCA44"/><stop offset="1" stop-color="#F8A528"/></linearGradient><linearGradient id="Q" x1="22.493" y1="4.5" x2="20.993" y2="8" gradientUnits="userSpaceOnUse"><stop stop-color="#CA0B4A"/><stop offset="1" stop-color="#F70A8D"/></linearGradient><linearGradient id="R" x1="28" y1="4.5" x2="25.5" y2="8.5" gradientUnits="userSpaceOnUse"><stop stop-color="#CA0B4A"/><stop offset="1" stop-color="#F70A8D"/></linearGradient><linearGradient id="B" x1="32.25" y1="6.344" x2="31.75" y2="9.844" gradientUnits="userSpaceOnUse"><stop stop-color="#553B3E"/><stop offset="1" stop-color="#3D2432"/></linearGradient><linearGradient id="at" x1="7.095" y1="13.781" x2="7.095" y2="16.331" gradientUnits="userSpaceOnUse"><stop stop-color="#D8796F" stop-opacity="0"/><stop offset="1" stop-color="#D8796F"/></linearGradient><linearGradient id="av" x1="10.05" y1="7.078" x2="10.05" y2="13.723" gradientUnits="userSpaceOnUse"><stop stop-color="#D1730B"/><stop offset="1" stop-color="#E27D47"/></linearGradient><linearGradient id="ax" x1="12.979" y1="7.82" x2="8.457" y2="7.82" gradientUnits="userSpaceOnUse"><stop stop-color="#FFDB44"/><stop offset="1" stop-color="#F9A928"/></linearGradient><linearGradient id="aO" x1="13.455" y1="10.101" x2="8.399" y2="10.101" gradientUnits="userSpaceOnUse"><stop stop-color="#FFDB44"/><stop offset="1" stop-color="#F9A928"/></linearGradient><linearGradient id="aA" x1="12.441" y1="14.423" x2="8.398" y2="14.423" gradientUnits="userSpaceOnUse"><stop stop-color="#FFDB44"/><stop offset="1" stop-color="#F9A928"/></linearGradient><linearGradient id="d" x1="40" y1="12.5" x2="40" y2="13.5" gradientUnits="userSpaceOnUse"><stop stop-color="#4F3C43"/><stop offset="1" stop-color="#512756"/></linearGradient><linearGradient id="aM" x1="12.803" y1="12.117" x2="9.179" y2="12.117" gradientUnits="userSpaceOnUse"><stop stop-color="#FFF166"/><stop offset="1" stop-color="#FFF166" stop-opacity="0"/></linearGradient><linearGradient id="aD" x1="10.613" y1="16.131" x2="10.613" y2="15.215" gradientUnits="userSpaceOnUse"><stop stop-color="#DC7C6A"/><stop offset="1" stop-color="#DC7C6A" stop-opacity="0"/></linearGradient><filter id="aF" x="9.186" y="13.225" width="3.935" height="1.988" filterUnits="userSpaceOnUse" color-interpolation-filters="sRGB"><feFlood flood-opacity="0" result="BackgroundImageFix"/><feBlend in="SourceGraphic" in2="BackgroundImageFix" result="shape"/><feGaussianBlur stdDeviation=".313" result="effect1_foregroundBlur_123_525"/></filter><filter id="ak" x="10.862" y="2.164" width="5.712" height="11.057" filterUnits="userSpaceOnUse" color-interpolation-filters="sRGB"><feFlood flood-opacity="0" result="BackgroundImageFix"/><feBlend in="SourceGraphic" in2="BackgroundImageFix" result="shape"/><feGaussianBlur stdDeviation=".313" result="effect1_foregroundBlur_123_525"/></filter><filter id="aV" x="8.768" y="8.375" width="4.836" height="2.508" filterUnits="userSpaceOnUse" color-interpolation-filters="sRGB"><feFlood flood-opacity="0" result="BackgroundImageFix"/><feBlend in="SourceGraphic" in2="BackgroundImageFix" result="shape"/><feGaussianBlur stdDeviation=".313" result="effect1_foregroundBlur_123_525"/></filter><filter id="aT" x="8.803" y="6.137" width="4.318" height="2.508" filterUnits="userSpaceOnUse" color-interpolation-filters="sRGB"><feFlood flood-opacity="0" result="BackgroundImageFix"/><feBlend in="SourceGraphic" in2="BackgroundImageFix" result="shape"/><feGaussianBlur stdDeviation=".313" result="effect1_foregroundBlur_123_525"/></filter><filter id="aN" x="7.898" y="7.642" width="6.557" height="4.417" filterUnits="userSpaceOnUse" color-interpolation-filters="sRGB"><feFlood flood-opacity="0" result="BackgroundImageFix"/><feColorMatrix in="SourceAlpha" values="0 0 0 0 0 0 0 0 0 0 0 0 0 0 0 0 0 0 127 0" result="hardAlpha"/><feOffset dx=".25" dy="-.25"/><feGaussianBlur stdDeviation=".375"/><feComposite in2="hardAlpha" operator="out"/><feColorMatrix values="0 0 0 0 0.941176 0 0 0 0 0.643137 0 0 0 0 0.215686 0 0 0 1 0"/><feBlend in2="BackgroundImageFix" result="effect1_dropShadow_123_525"/><feBlend in="SourceGraphic" in2="effect1_dropShadow_123_525" result="shape"/></filter><filter id="aL" x="8.991" y="11.29" width="4.613" height="1.988" filterUnits="userSpaceOnUse" color-interpolation-filters="sRGB"><feFlood flood-opacity="0" result="BackgroundImageFix"/><feBlend in="SourceGraphic" in2="BackgroundImageFix" result="shape"/><feGaussianBlur stdDeviation=".313" result="effect1_foregroundBlur_123_525"/></filter><filter id="aH" x="7.898" y="9.867" width="6.579" height="4.482" filterUnits="userSpaceOnUse" color-interpolation-filters="sRGB"><feFlood flood-opacity="0" result="BackgroundImageFix"/><feColorMatrix in="SourceAlpha" values="0 0 0 0 0 0 0 0 0 0 0 0 0 0 0 0 0 0 127 0" result="hardAlpha"/><feOffset dx=".25" dy="-.25"/><feGaussianBlur stdDeviation=".375"/><feComposite in2="hardAlpha" operator="out"/><feColorMatrix values="0 0 0 0 0.941176 0 0 0 0 0.643137 0 0 0 0 0.215686 0 0 0 1 0"/><feBlend in2="BackgroundImageFix" result="effect1_dropShadow_123_525"/><feBlend in="SourceGraphic" in2="effect1_dropShadow_123_525" result="shape"/></filter><filter id="aX" x="6.95" y="1.931" width="2.683" height="5.249" filterUnits="userSpaceOnUse" color-interpolation-filters="sRGB"><feFlood flood-opacity="0" result="BackgroundImageFix"/><feBlend in="SourceGraphic" in2="BackgroundImageFix" result="shape"/><feGaussianBlur stdDeviation=".313" result="effect1_foregroundBlur_123_525"/></filter><filter id="az" x="7.898" y="12.008" width="5.931" height="4.332" filterUnits="userSpaceOnUse" color-interpolation-filters="sRGB"><feFlood flood-opacity="0" result="BackgroundImageFix"/><feColorMatrix in="SourceAlpha" values="0 0 0 0 0 0 0 0 0 0 0 0 0 0 0 0 0 0 127 0" result="hardAlpha"/><feOffset dx=".25" dy="-.25"/><feGaussianBlur stdDeviation=".375"/><feComposite in2="hardAlpha" operator="out"/><feColorMatrix values="0 0 0 0 0.941176 0 0 0 0 0.643137 0 0 0 0 0.215686 0 0 0 1 0"/><feBlend in2="BackgroundImageFix" result="effect1_dropShadow_123_525"/><feBlend in="SourceGraphic" in2="effect1_dropShadow_123_525" result="shape"/></filter><filter id="aw" x="7.957" y="5.615" width="6.021" height="4.41" filterUnits="userSpaceOnUse" color-interpolation-filters="sRGB"><feFlood flood-opacity="0" result="BackgroundImageFix"/><feColorMatrix in="SourceAlpha" values="0 0 0 0 0 0 0 0 0 0 0 0 0 0 0 0 0 0 127 0" result="hardAlpha"/><feOffset dx=".25"/><feGaussianBlur stdDeviation=".375"/><feComposite in2="hardAlpha" operator="out"/><feColorMatrix values="0 0 0 0 0.878431 0 0 0 0 0.541176 0 0 0 0 0.0627451 0 0 0 1 0"/><feBlend in2="BackgroundImageFix" result="effect1_dropShadow_123_525"/><feBlend in="SourceGraphic" in2="effect1_dropShadow_123_525" result="shape"/></filter><filter id="au" x="6.822" y="6.078" width="6.455" height="10.307" filterUnits="userSpaceOnUse" color-interpolation-filters="sRGB"><feFlood flood-opacity="0" result="BackgroundImageFix"/><feBlend in="SourceGraphic" in2="BackgroundImageFix" result="shape"/><feGaussianBlur stdDeviation=".5" result="effect1_foregroundBlur_123_525"/></filter><filter id="ao" x="1.708" y=".906" width="11.274" height="15.934" filterUnits="userSpaceOnUse" color-interpolation-filters="sRGB"><feFlood flood-opacity="0" result="BackgroundImageFix"/><feColorMatrix in="SourceAlpha" values="0 0 0 0 0 0 0 0 0 0 0 0 0 0 0 0 0 0 127 0" result="hardAlpha"/><feOffset dx=".25"/><feGaussianBlur stdDeviation=".5"/><feComposite in2="hardAlpha" operator="out"/><feColorMatrix values="0 0 0 0 0.847059 0 0 0 0 0.458824 0 0 0 0 0.360784 0 0 0 1 0"/><feBlend in2="BackgroundImageFix" result="effect1_dropShadow_123_525"/><feBlend in="SourceGraphic" in2="effect1_dropShadow_123_525" result="shape"/></filter><filter id="am" x="10.246" y="4.187" width="3.434" height="7.042" filterUnits="userSpaceOnUse" color-interpolation-filters="sRGB"><feFlood flood-opacity="0" result="BackgroundImageFix"/><feBlend in="SourceGraphic" in2="BackgroundImageFix" result="shape"/><feGaussianBlur stdDeviation=".375" result="effect1_foregroundBlur_123_525"/></filter><filter id="ae" x="12.745" y="6.292" width="7.513" height="9.955" filterUnits="userSpaceOnUse" color-interpolation-filters="sRGB"><feFlood flood-opacity="0" result="BackgroundImageFix"/><feColorMatrix in="SourceAlpha" values="0 0 0 0 0 0 0 0 0 0 0 0 0 0 0 0 0 0 127 0" result="hardAlpha"/><feOffset dx=".25"/><feGaussianBlur stdDeviation=".125"/><feComposite in2="hardAlpha" operator="out"/><feColorMatrix values="0 0 0 0 0.952941 0 0 0 0 0.615686 0 0 0 0 0.364706 0 0 0 1 0"/><feBlend in2="BackgroundImageFix" result="effect1_dropShadow_123_525"/><feBlend in="SourceGraphic" in2="effect1_dropShadow_123_525" result="shape"/></filter></defs></svg>