<svg width="24" height="24" fill="none" xmlns="http://www.w3.org/2000/svg"><path d="M17 12a2 2 0 0 0 4 0 9 9 0 1 0-2.987 6.697" stroke="#F0F0FF" stroke-width="2" stroke-linecap="round" stroke-linejoin="round"/><path d="M7 12a5 5 0 1 0 10 0 5 5 0 0 0-10 0z" stroke="#F0F0FF" stroke-width="2" stroke-linecap="round" stroke-linejoin="round"/><path d="M11 12a1 1 0 1 0 2 0 1 1 0 0 0-2 0z" stroke="#F0F0FF" stroke-width="2" stroke-linecap="round" stroke-linejoin="round"/><path d="M11 12a1 1 0 1 0 2 0 1 1 0 0 0-2 0z" stroke="#F0F0FF" stroke-width="2" stroke-linecap="round" stroke-linejoin="round"/></svg>